<svg width="596" height="596" viewBox="0 0 596 596" fill="none" xmlns="http://www.w3.org/2000/svg">
<path d="M298 595.999C462.58 595.999 595.999 462.58 595.999 297.999C595.999 133.419 462.58 0 298 0C133.419 0 0 133.419 0 297.999C0 462.58 133.419 595.999 298 595.999Z" fill="#005792"/>
<path d="M300.177 9.0724C292.943 9.04944 283.768 9.47246 276.012 11.3652C263.602 14.3931 251.384 19.0542 250.539 18.5937C249.695 18.1327 269.343 11.1997 260.473 10.7217C251.604 10.2435 222.5 14.9462 219.236 16.7546C215.971 18.5631 218.382 19.6644 213.321 19.6644C208.26 19.6644 192.741 27.801 195.076 29.939C197.412 32.0764 198.627 32.2347 198.627 32.2347C198.627 32.2347 189.292 31.7411 189.471 35.6427C189.649 39.5447 199.502 39.3772 200.691 39.5254C201.881 39.674 204.793 41.4325 204.793 41.4325C204.793 41.4325 224.069 28.5138 230.252 26.0475C236.435 23.5812 243.314 18.2573 243.261 21.4499C243.209 24.6426 233.209 29.4424 230.679 31.336C228.149 33.2297 221.256 38.4797 224.301 39.5342C227.347 40.5889 227.226 40.2045 227.226 40.2045C240.228 39.4077 252.832 38.1298 250.643 50.2004C248.455 62.2709 242.051 63.0479 244.756 67.979C247.461 72.9105 246.947 74.2321 246.31 80.1282C245.672 86.0246 257.011 111.141 259.975 113.523C262.938 115.906 270.123 114.239 271.999 115.27C273.876 116.302 274.115 119.905 277.229 118.655C280.342 117.404 285.732 117.688 287.005 109.742C288.278 101.796 286.291 89.6931 293.981 88.2879C301.671 86.8826 312.913 85.5784 314.821 81.2849C316.728 76.9916 334.093 70.5621 336.26 69.9249C338.427 69.2872 346.848 66.3189 343.693 58.1287C340.537 49.9385 343.224 47.5376 344.87 43.7462C346.517 39.9547 340.328 36.1496 335.1 31.9024C329.872 27.6556 330.051 22.065 330.775 17.7157C331.499 13.3662 325.201 13.1527 321.159 14.2394C317.117 15.3257 316.288 9.69804 310.377 9.38384C308.161 9.2656 304.517 9.08773 300.177 9.07223V9.0724ZM181.433 36.4228C179.109 36.5273 177.001 37.1591 177.494 38.603C178.282 40.913 179.681 43.4779 177.663 43.2803C175.644 43.0829 176.237 38.5212 174.243 38.3419C169.579 38.7419 165.979 40.3278 165.365 42.7407C164.752 45.1535 165.537 47.2049 169.031 47.6555C172.47 48.0992 177.265 47.4792 184.037 47.718C184.145 47.718 184.24 47.718 184.348 47.7352C191.293 48.0067 199.203 49.9914 200.217 45.653C201.231 41.3147 193.044 41.8475 189.213 41.3404C185.382 40.8336 188.09 37.4281 185.333 36.7518C184.299 36.4981 182.827 36.3719 181.433 36.4344L181.433 36.4228ZM184.037 47.7177C182.758 47.7177 181.741 47.9938 181.133 48.6698C177.894 52.2777 163.906 57.793 162.153 63.4142C160.399 69.0355 148.655 75.7305 152.937 67.1664C157.219 58.6023 173.124 54.3927 169.797 51.4401C166.469 48.4876 158.717 52.6917 154.388 54.6614C150.058 56.6311 141.123 66.6691 140.673 70.5389C140.223 74.4087 124.914 84.2107 129.001 77.9482C133.088 71.6855 145.506 56.7065 147.227 55.0943C148.949 53.482 141.07 53.1723 141.07 53.1723C141.07 53.1723 142.185 49.8243 140.765 49.094C139.344 48.3637 115.269 59.9634 116.176 64.1439C117.083 68.3246 114.548 69.2638 114.049 72.0159C113.55 74.7681 111.813 83.2076 109.057 81.5668C106.301 79.9257 110.002 73.4693 108.123 70.1325C107.661 69.3127 104.663 71.3729 100.441 74.899C82.8991 90.4323 67.2505 107.98 53.8195 127.179L21.0087 188.1C13.8674 206.097 8.49716 224.747 4.97393 243.785C9.25388 243.076 12.9097 242.235 13.2138 241.327C13.9927 238.997 12.5677 246.641 13.366 258.067C14.1628 269.493 14.6616 302.256 18.6456 309.268C22.6296 316.28 29.9165 321.525 27.0811 312.792C24.2456 304.058 20.3487 282.338 24.4116 295.217C28.4748 308.097 34.4963 322.072 34.4963 322.072C53.4952 350.146 78.1305 355.709 95.4644 368.542C112.798 381.375 125.188 380.759 128.456 383.714C131.725 386.669 126.763 396.681 128.145 416.27C129.526 435.858 166.711 473.638 181.339 480.56C195.966 487.481 198.276 505.381 206.803 527.329C215.329 549.277 243.247 582.171 257.481 588.357C271.715 594.542 280.225 588.739 280.225 588.739C280.225 588.739 262.706 597.056 257.588 571.637C252.469 546.218 274.305 509.983 289.103 502.435C303.9 494.887 328.055 456.98 330.373 445.18C332.69 433.38 322.775 425.717 299.44 418.506C276.104 411.295 254.076 413.057 254.076 413.057C254.076 413.057 263.919 406.358 255.322 398.541C246.726 390.725 220.898 380.414 211.833 375.634C202.768 370.855 208.269 364.994 190.788 366.038C173.307 367.081 156.237 361.515 149.682 363.473C143.127 365.431 141.32 374.497 131.725 372.291C122.13 370.086 113.816 367.605 110.149 357.992C106.483 348.378 103.107 341.82 97.7362 341.402C92.3654 340.985 92.6098 340.035 92.0827 330.547C91.5552 321.058 80.1633 310.777 75.9148 319.703C71.666 328.628 62.5996 328.041 61.9622 314.788C61.3245 301.535 60.8652 285.005 72.7261 285.005C84.587 285.005 91.6456 284.291 99.2521 288.701C106.859 293.111 115.717 300.064 113.925 287.491C112.133 274.917 118.241 260.661 135.56 239.535C152.879 218.409 164.502 204.327 172.947 204.885C181.393 205.443 188.385 209.158 200.416 199C212.448 188.843 211.021 179.884 200.612 180.522C190.203 181.159 182.788 175.656 187.989 171.902C193.189 168.149 207.185 167.859 211.367 168.788C215.549 169.717 211.717 183.404 212.304 185.635C212.891 187.866 236.967 191.069 240.568 187.035C244.17 183.001 239.386 172.051 233.649 167.99C227.912 163.928 239.193 156.821 233.195 151.38C227.196 145.938 209.071 141.729 208.434 135.642C207.796 129.554 211.688 119.671 205.097 116.267C198.506 112.863 194.392 122.088 191.417 123.522C188.443 124.956 189.194 120.722 184.029 113.832C178.863 106.942 164.584 102.511 160.558 105.954C156.532 109.397 150.363 131.24 150.363 131.24C136.517 137.832 139.19 148.933 136.076 153.601C132.961 158.27 128.915 162.243 131.274 150.514C133.632 138.784 124.707 145.949 120.192 142.748C115.678 139.548 95.9839 128.959 107.432 120.885C118.88 112.811 129.077 99.3197 134.017 101.276C138.958 103.233 147.643 104.484 152.727 103.715C157.812 102.945 154.569 96.5578 153.24 94.3418C151.912 92.1256 159.451 88.1402 162.038 85.9031C164.624 83.6662 165.721 68.0382 171.387 68.4062C177.053 68.7742 186.407 70.0424 186.876 75.6999C187.345 81.3571 179.42 88.4707 175.178 89.3054C170.935 90.1399 162.509 96.6025 162.768 97.806C163.025 99.0097 174.505 95.7661 176.201 97.4324C177.897 99.099 179.784 106.227 188.798 107.752C197.812 109.276 211.251 107.49 209.682 100.333C208.113 93.1764 204.079 86.3 206.802 88.018C209.525 89.7362 222.621 89.677 223.394 85.6156C224.168 81.5541 208.742 74.724 208.742 74.724C208.742 74.724 214.129 72.2559 214.129 70.6754C214.129 69.0948 207.254 59.0554 203.261 55.8449C200.016 53.2364 189.576 47.7489 184.037 47.7177H184.037ZM453.856 53.1634C453.667 53.1634 453.48 53.1634 453.29 53.1806C451.467 53.354 449.609 54.603 447.785 57.6267C442.92 65.6901 450.403 74.9303 450.063 80.4627C449.723 85.9954 441.857 84.84 444.566 97.589C447.276 110.338 459.552 124.674 465.125 121.332C470.697 117.991 483.68 122.428 480.426 126.31C477.173 130.191 466.905 116.372 467.064 126.093C467.224 135.814 467.036 147.708 464.813 153.441C464.105 155.265 461.694 156.894 458.807 158.539C460.617 157.454 458.424 152.403 458.424 152.403C454.853 144.775 453.33 146.05 451.418 143.979C449.506 141.907 448.708 139.915 447.114 137.047C445.52 134.179 447.017 134.666 443.113 134.268C439.209 133.869 435.857 130.211 436.187 126.102C436.517 121.993 435.709 119.87 431.427 118.405C427.145 116.94 421.365 118.861 420.808 122.228C420.251 125.596 421.153 131.795 425.661 134.161C430.168 136.527 437.617 138.134 436.715 143.092C435.814 148.05 433.5 151 434.965 154.043C436.43 157.085 438.118 156.74 438.343 160.233C438.569 163.726 442.752 163.778 448.351 160.906C453.947 158.036 456.987 159.624 458.804 158.545C452.615 162.071 444.221 165.66 445.604 171.344C447.633 179.683 454.016 175.118 456.042 183.68C458.068 192.242 466.793 198.307 456.282 197.686C445.772 197.065 426.596 192.38 427.915 197.732C429.234 203.086 434.499 209.831 432.746 218.053C430.993 226.274 432.515 230.392 439.538 232.305C446.563 234.217 447.818 236.12 448.725 236.917C449.631 237.714 454.194 235.82 456.261 233.912C458.329 232.004 463.89 233.292 466.607 232.1C469.324 230.909 474.417 225.813 473.779 220.873C473.142 215.933 473.846 210.625 477.976 208.712C482.107 206.8 479.846 202.16 482.396 199.77C484.945 197.379 486.909 198.178 488.98 197.859C491.052 197.541 491.951 193.939 494.672 193.517C497.394 193.096 495.082 192.8 501.616 198.856C508.15 204.912 515.699 204.407 520.955 209.65C526.211 214.892 527.58 217.252 523.138 219.642C518.696 222.033 511.669 225.478 517.001 227.167C522.334 228.857 528.764 232.948 527.969 228.351C527.175 223.754 529.789 216.531 530.426 214.568C531.063 212.604 536.57 209.154 528.444 206.764C520.318 204.373 509.162 191.7 508.23 190.88C507.299 190.06 501.205 183.328 507.361 185.253C513.518 187.178 527.805 199.667 529.726 202.872C531.646 206.077 536.978 216.063 539.027 218.895C541.076 221.727 546.53 233.55 549.094 230.659C551.659 227.767 549.619 219.123 547.14 215.629C544.661 212.136 548.804 204.197 551.396 212.198C553.988 220.198 556.395 231.913 561.804 232.477C567.213 233.04 574.281 226.33 575.344 230.045C576.407 233.759 576.867 238.405 577.316 244.199C577.766 249.992 576.482 254.125 571.542 255.304C566.602 256.482 570.356 262.171 568.184 261.153C566.012 260.135 560.588 251.706 555.81 249.796C551.031 247.885 546.259 242.944 544.028 249.318C541.797 255.693 542.41 262.081 536.832 259.053C531.255 256.025 527.001 248.351 520.148 246.598C513.296 244.845 514.739 240.517 514.898 235.09C515.058 229.663 514.44 225.944 504.241 228.016C494.042 230.087 477.471 228.653 471.887 233.432C466.302 238.211 454.764 234.594 449.558 239.839C444.352 245.083 435.37 246.775 435.84 254.097C436.309 261.418 437.521 268.869 427.606 274.812C417.69 280.754 415.898 291.077 413.054 296.586C410.21 302.095 406.314 305.765 407.908 312.351C409.501 318.936 413.637 325.587 409.335 334.193C405.032 342.798 405.704 350.858 410.907 358.028C416.11 365.199 422.618 373.223 424.148 377.516C425.678 381.808 428.728 379.961 433.79 384.875C438.852 389.788 452.864 389.928 458.949 388.802C465.034 387.675 478.083 379.366 485.706 380.829C493.329 382.291 492.958 391.044 492.958 391.044C492.958 391.044 504.831 381.766 504.606 388.208C504.38 394.651 494.092 406.357 497.472 413.343C500.853 420.33 506.69 429.938 502.633 440.174C498.577 450.411 484.525 458.301 483.069 467.919C481.613 477.537 483.872 483.491 478.231 495.445C472.59 507.398 472.667 516.366 465.442 523.047C458.216 529.728 456.67 540.032 469.291 533.669C481.913 527.305 496.698 516.726 501.705 510.687C506.712 504.648 514.825 500.367 519.558 493.831C524.291 487.295 528.748 482.845 535.735 474.056C538.717 470.305 542.362 466.831 545.731 463.618C549.964 457.286 553.954 450.793 557.69 444.155C559.41 437.95 561.773 430.159 565.778 423.155C569.319 416.963 576.827 400.569 582.599 386.34C585.624 376.597 588.147 366.706 590.157 356.706C589.491 343.641 586.638 320.105 585.601 314.142C584.326 306.812 576.562 271.001 578.862 270.908C581.162 270.816 592.451 302.884 591.177 312.923C589.903 322.962 589.036 337.618 590.7 338.642C591.133 338.909 592.022 339.437 593.07 339.668C595.02 325.862 595.999 311.935 596 297.992C595.999 205.184 552.759 117.674 479.041 61.2916C477.28 60.8955 476.288 60.876 476.288 60.876C468.598 61.4956 465.846 61.9585 461.799 58.0375C459.427 55.7403 456.691 53.2228 453.856 53.1552L453.856 53.1634ZM358.007 77.61C352.28 77.6754 346.865 78.4467 345.953 81.4362C344.494 86.2193 347.551 85.8228 348.963 87.3952C350.376 88.9677 348.112 90.2676 347.999 92.0666C347.887 93.8659 342.243 92.2314 352.443 94.7806C362.642 97.3306 373.188 97.0412 377.177 93.9176C381.166 90.7941 383.124 82.9823 378.099 80.7304C373.075 78.478 371.315 78.1172 367.745 77.9303C364.989 77.7862 361.443 77.571 358.007 77.61V77.61ZM417.646 135.733C417.424 135.751 417.312 135.875 417.184 136.244C417.033 140.362 416.88 141.487 414.914 142.363C412.95 143.239 410.66 150.303 414.564 153.729C418.469 157.155 423.972 160.764 426.278 155.719C428.583 150.674 432.976 144.767 430.187 141.102C427.398 137.437 422.839 135.705 420.289 135.864C418.695 135.964 418.016 135.702 417.646 135.73V135.733Z" fill="#71CD51"/>
<path d="M186.961 173.624C171.913 171.311 157.937 181.563 155.625 196.612C154.999 200.685 155.321 204.671 156.382 208.377L122.671 203.197C107.622 200.884 93.6468 211.139 91.3341 226.187C89.0215 241.236 99.2734 255.211 114.322 257.524L168.649 265.873C183.697 268.185 197.672 257.933 199.985 242.885C200.611 238.812 200.288 234.825 199.227 231.119L232.939 236.3C247.987 238.612 261.963 228.358 264.275 213.309C266.588 198.261 256.336 184.286 241.288 181.973L186.961 173.624Z" fill="#D8D8D8" fill-opacity="0.84397"/>
<path d="M502.182 377.225L448.731 390.032C433.971 393.569 424.873 408.401 428.409 423.162C431.946 437.922 446.778 447.02 461.538 443.484L514.99 430.676C529.75 427.14 538.848 412.307 535.311 397.547C531.775 382.787 516.942 373.689 502.182 377.225Z" fill="#D8D8D8" fill-opacity="0.84397"/>
<path d="M223.268 444.223L168.975 435.662C153.982 433.297 139.912 443.535 137.547 458.527C135.183 473.52 145.42 487.59 160.413 489.955L214.706 498.517C229.699 500.881 243.769 490.644 246.133 475.651C248.498 460.658 238.26 446.588 223.268 444.223Z" fill="#D8D8D8" fill-opacity="0.84397"/>
<path d="M522.718 162.89L468.508 171.963C453.539 174.469 443.434 188.635 445.94 203.605C448.445 218.575 462.612 228.679 477.582 226.173L531.792 217.1C546.761 214.595 556.865 200.428 554.36 185.459C551.854 170.489 537.688 160.385 522.718 162.89Z" fill="#D8D8D8" fill-opacity="0.84397"/>
<path d="M410.887 342.998H330.388C315.21 342.998 302.906 355.302 302.906 370.48V371.029C302.906 386.207 315.21 398.511 330.388 398.511H410.887C426.065 398.511 438.369 386.207 438.369 371.029V370.48C438.369 355.302 426.065 342.998 410.887 342.998Z" fill="#D8D8D8" fill-opacity="0.84397"/>
<path d="M303.014 218.706C316.127 218.706 326.757 208.076 326.757 194.963C326.757 181.851 316.127 171.22 303.014 171.22C289.902 171.22 279.272 181.851 279.272 194.963C279.272 208.076 289.902 218.706 303.014 218.706Z" fill="#1A1A1A"/>
<path d="M279.945 287.326C276.759 287.239 273.826 289.053 272.481 291.942C270.62 295.95 272.365 300.708 276.375 302.563C310.588 318.462 340.345 327.841 372.12 329.335C403.894 330.829 437.373 324.114 471.126 302.002C474.821 299.587 475.857 294.634 473.442 290.939C471.027 287.245 466.074 286.209 462.379 288.624C430.862 309.271 401.384 314.701 372.872 313.36C344.36 312.02 316.502 303.585 283.101 288.063C282.111 287.604 281.036 287.353 279.945 287.325V287.326Z" fill="#1A1A1A"/>
<path d="M334.168 136.413C334.168 136.413 284.482 129.156 254.81 162.094C254.283 162.679 253.876 163.362 253.614 164.104C253.351 164.846 253.236 165.632 253.278 166.419C253.319 167.205 253.514 167.975 253.853 168.686C254.192 169.397 254.667 170.034 255.252 170.56C255.837 171.087 256.521 171.494 257.263 171.757C258.005 172.02 258.791 172.134 259.578 172.093C260.364 172.052 261.134 171.856 261.845 171.517C262.555 171.178 263.192 170.703 263.719 170.118C288.213 142.928 332.575 148.302 332.575 148.302C333.355 148.407 334.149 148.357 334.911 148.155C335.672 147.953 336.386 147.603 337.012 147.125C337.638 146.647 338.164 146.05 338.559 145.369C338.954 144.687 339.212 143.935 339.316 143.154C339.421 142.373 339.371 141.579 339.169 140.818C338.967 140.057 338.617 139.342 338.139 138.716C337.661 138.09 337.064 137.565 336.383 137.169C335.701 136.774 334.949 136.517 334.168 136.413V136.413Z" fill="#1A1A1A"/>
<path d="M476.654 152.09C475.837 152.108 475.033 152.292 474.289 152.632C473.546 152.972 472.88 153.46 472.333 154.067C447.839 181.257 403.477 175.898 403.477 175.898C401.903 175.686 400.308 176.107 399.044 177.069C397.78 178.032 396.95 179.457 396.736 181.031C396.631 181.812 396.681 182.606 396.883 183.367C397.085 184.128 397.435 184.842 397.913 185.468C398.391 186.094 398.988 186.62 399.669 187.015C400.351 187.411 401.103 187.668 401.884 187.772C401.884 187.772 451.57 195.029 481.242 162.091C481.769 161.506 482.175 160.823 482.438 160.081C482.701 159.339 482.815 158.553 482.774 157.766C482.733 156.98 482.538 156.21 482.199 155.499C481.86 154.788 481.384 154.151 480.799 153.625C479.664 152.604 478.181 152.055 476.654 152.09V152.09Z" fill="#1A1A1A"/>
<path d="M451.327 181.467C434.623 187.653 418.201 188.064 409.201 187.668C408.441 190.025 408.053 192.486 408.054 194.963C408.053 198.081 408.668 201.168 409.861 204.049C411.054 206.93 412.803 209.548 415.008 211.753C417.213 213.958 419.83 215.707 422.711 216.9C425.592 218.093 428.68 218.707 431.798 218.707C438.095 218.706 444.134 216.204 448.586 211.751C453.038 207.298 455.539 201.259 455.538 194.963C455.538 190.141 454.069 185.433 451.327 181.467V181.467Z" fill="#1A1A1A"/>
</svg>
