<svg width="755" height="756" viewBox="0 0 755 756" fill="none" xmlns="http://www.w3.org/2000/svg">
<path d="M443.424 646.184C591.625 609.64 682.14 459.876 645.597 311.676C609.053 163.475 459.289 72.9599 311.088 109.503C162.888 146.047 72.3725 295.811 108.916 444.012C145.46 592.212 295.224 682.728 443.424 646.184Z" fill="#E4A43D"/>
<path d="M177.463 568.308C196.697 588.476 218.87 605.62 243.232 619.156C306.959 631.029 372.481 629.243 435.467 613.914C498.325 598.272 557.151 569.477 608.064 529.43C623.405 506.079 635.116 480.537 642.799 453.675C583.51 514.124 508.63 556.959 426.469 577.425C344.219 597.451 258.028 594.295 177.463 568.308V568.308Z" fill="#EBBB6E" fill-opacity="0.616766"/>
<path d="M651.302 411.084C640.665 423.049 620.941 446.062 605.047 445.455C572.191 444.2 550.24 446.003 535.626 464.01C492.792 516.793 456.945 541.917 419.991 551.152C330.55 573.136 236.56 567.649 150.284 535.409C158.611 547.245 167.855 558.409 177.931 568.798C258.397 594.535 344.413 597.521 426.469 577.424C508.631 556.957 583.512 514.12 642.8 453.668C646.747 439.718 649.589 425.48 651.302 411.084V411.084Z" fill="#FAEFDC" fill-opacity="0.586826"/>
<path d="M123.029 485.923C130.346 503.162 139.396 519.613 150.04 535.022C236.35 567.441 330.434 573.063 419.991 551.152C467.832 539.344 506.023 518.653 518.558 486.303C525.961 467.194 528.612 466.16 549.203 452.908C570.645 439.109 638.243 426.76 651.162 412.364C653.518 393.606 653.942 374.657 652.429 355.812C589.953 431.519 504.814 485.157 409.554 508.824C277.482 512.503 213.607 524.098 123.029 485.923V485.923Z" fill="#EAB765" fill-opacity="0.616766"/>
<path d="M641.25 296.394C578.657 373.931 492.489 428.943 395.811 453.092C299.132 476.713 197.391 468.208 105.976 428.864C106.815 433.939 107.796 438.991 108.916 444.011C112.508 458.407 117.253 472.489 123.105 486.123C213.683 524.214 281.237 549.568 409.553 508.824C504.821 485.133 589.959 431.465 652.42 355.73C651.336 340.886 649.054 326.153 645.597 311.675C644.295 306.541 642.845 301.445 641.25 296.394V296.394Z" fill="#FAEFDC" fill-opacity="0.586826"/>
<path d="M619.888 245.855C557.81 319.002 474.334 370.814 381.236 393.983C288.113 416.778 190.184 409.784 101.247 373.984C100.991 392.454 102.588 410.903 106.013 429.055C197.438 468.327 244.959 496.699 395.811 453.091C492.479 429.043 578.674 374.141 641.337 296.704C635.901 279.081 628.716 262.046 619.888 245.855V245.855Z" fill="#CD9232" fill-opacity="0.586826"/>
<path d="M609.853 229.199C548.293 299.648 466.639 349.56 375.87 372.224C284.977 394.514 189.437 388.432 102.104 354.795C101.599 361.137 101.314 367.494 101.248 373.856C190.172 409.698 288.1 416.738 381.236 393.984C474.343 370.874 557.846 319.117 619.967 246.015C616.796 240.292 613.422 234.683 609.853 229.199V229.199Z" fill="#F9E9D1" fill-opacity="0.586826"/>
<path d="M604.068 220.023C542.796 288.82 462.205 337.546 372.816 359.839C283.432 381.823 189.497 376.371 103.256 344.192C102.814 347.648 102.438 351.112 102.127 354.582C189.431 388.285 269.417 409.887 375.87 372.223C467.263 342.658 544.455 299.478 610.185 229.727C608.214 226.45 606.174 223.215 604.068 220.023V220.023Z" fill="#BE8833" fill-opacity="0.586826"/>
<path d="M589.252 200.827C528.979 265.109 451.445 310.644 365.945 331.972C280.38 352.809 190.622 348.541 107.42 319.679C105.686 327.68 104.308 335.754 103.291 343.877C189.489 376.153 282.194 379.92 371.6 358.043C461.05 335.977 542.985 289.248 604.432 220.601C599.672 213.785 594.607 207.187 589.252 200.827V200.827Z" fill="#F5DDB8" fill-opacity="0.565868"/>
<path d="M137.531 240.969C123.419 265.709 113.215 292.481 107.281 320.338C190.59 349.008 280.399 353.048 365.945 331.973C451.475 310.719 529.059 265.247 589.394 201.007C571.377 179.372 550.161 160.617 526.479 145.391C473.15 189.971 453.404 220.512 342.911 238.56C240.726 245.67 205.291 255.721 137.531 240.969Z" fill="#EABA6C" fill-opacity="0.667665"/>
<path d="M311.088 109.504C262.443 121.603 217.763 146.54 182.289 181.957C230.465 185.631 279.159 181.827 326.094 170.361C372.853 158.633 417.468 139.598 458.292 113.959C410.53 99.1873 359.656 97.6476 311.088 109.504Z" fill="#A66F17" fill-opacity="0.586826"/>
<path d="M573.513 500.928C592.827 490.287 603.153 471.984 596.576 460.048C590 448.111 569.012 447.06 549.698 457.701C530.383 468.342 520.057 486.644 526.634 498.581C533.21 510.518 554.199 511.569 573.513 500.928Z" fill="#EA844B"/>
<path d="M547.588 248.775C556.551 246.565 562.025 237.507 559.815 228.544C557.605 219.581 548.548 214.107 539.585 216.317C530.622 218.527 525.147 227.585 527.358 236.548C529.568 245.511 538.625 250.985 547.588 248.775Z" fill="#1A1A1A"/>
<path d="M443.141 274.529C452.104 272.319 457.578 263.262 455.368 254.299C453.158 245.336 444.101 239.861 435.138 242.072C426.175 244.282 420.7 253.339 422.911 262.302C425.121 271.265 434.178 276.739 443.141 274.529Z" fill="#1A1A1A"/>
<path d="M546.291 291.252C539.191 304.738 525.178 317.368 510.03 321.124C494.932 324.826 476.494 320.64 463.823 311.189C461.9 309.464 460.854 309.98 460.635 312.237C460.288 315.841 460.88 318.134 461.718 321.596C466.813 342.26 489.773 364.495 517.406 356.586C545.039 348.677 558.119 319.745 553.024 299.082C552.158 295.642 551.596 293.281 549.628 290.261C548.255 288.021 546.662 289.12 546.291 291.253L546.291 291.252Z" fill="#1A1A1A"/>
</svg>
