<svg width="596" height="596" viewBox="0 0 596 596" fill="none" xmlns="http://www.w3.org/2000/svg">
<path d="M372.178 521.822C495.792 480.854 562.789 347.435 521.822 223.822C480.854 100.208 347.435 33.2106 223.822 74.1781C100.209 115.146 33.2107 248.565 74.1782 372.178C115.146 495.792 248.565 562.789 372.178 521.822Z" fill="#F48665"/>
<path d="M124.108 367.074C114.97 370.082 106.576 373.175 99.0858 376.357C93.6474 378.667 86.7063 381.684 78.8874 385.113C78.8874 385.137 78.8874 385.151 78.8874 385.176C79.604 386.976 80.343 388.766 81.1029 390.546C81.1282 390.623 81.1536 390.701 81.1789 390.779C81.9503 392.577 82.7376 394.365 83.5517 396.143C83.5517 396.149 83.5517 396.155 83.5517 396.162C83.5517 396.19 83.5518 396.227 83.5993 396.26C84.4115 398.029 85.2403 399.791 86.0963 401.538C86.1358 401.607 86.1756 401.676 86.2152 401.745C87.0545 403.462 87.9187 405.167 88.8003 406.862C88.8446 406.944 88.8894 407.026 88.9338 407.108C89.8092 408.783 90.7018 410.448 91.6152 412.101C91.6801 412.219 91.7451 412.337 91.8101 412.456C92.7331 414.123 93.6806 415.777 94.6459 417.42C94.6459 417.449 94.6459 417.478 94.6935 417.506C95.6839 419.195 96.6992 420.87 97.7329 422.532C97.7329 422.575 97.7806 422.623 97.8234 422.652C98.8646 424.328 99.9303 425.99 101.015 427.638C102.111 429.303 103.227 430.954 104.364 432.591C104.367 432.595 104.364 432.6 104.364 432.605C105.492 434.227 106.639 435.834 107.807 437.428C107.807 437.48 107.888 437.517 107.907 437.567C109.056 439.133 110.225 440.685 111.413 442.222C111.413 442.269 111.489 442.295 111.503 442.34C112.706 443.893 113.928 445.432 115.17 446.956C115.17 446.965 115.17 446.975 115.17 446.984C116.406 448.502 117.661 450.006 118.936 451.493C119.003 451.544 119.036 451.607 119.083 451.664C120.361 453.152 121.657 454.621 122.973 456.078C122.976 456.081 122.973 456.087 122.973 456.092C124.287 457.547 125.621 458.986 126.973 460.409C127.039 460.452 127.063 460.506 127.111 460.555C127.135 460.577 127.159 460.599 127.182 460.621C128.499 462.003 129.834 463.371 131.186 464.722C131.206 464.735 131.227 464.748 131.247 464.76C131.252 464.775 131.247 464.794 131.247 464.803C131.248 464.803 131.249 464.802 131.25 464.802C138.393 463.634 145.424 462.661 152.241 461.983C241.107 453.139 289.398 435.62 351.815 428.105C387.718 423.782 457.107 427.06 466.602 426.248C494.868 410.129 511.659 393.143 521.389 373.276C529.85 348.151 534.013 321.779 533.703 295.27C533.703 295.16 533.704 295.062 533.699 294.958C533.685 294.44 533.669 293.922 533.652 293.404C505.676 299.253 468.099 281.527 449.492 290.367C327.404 348.366 212.349 338.028 124.009 367.094L124.108 367.074Z" fill="#D4805C"/>
<path d="M325.932 455.493C275.502 469.103 250.542 486.036 207.6 515.777C259.95 537.507 318.375 539.654 372.178 521.823C425.981 503.991 471.561 467.375 500.571 418.679C448.366 420.472 398.709 435.851 325.932 455.493Z" fill="#F4E0DB"/>
<path d="M223.821 74.1794C175.035 90.3482 132.868 122.014 103.738 164.357C151.732 161.618 208.735 133.577 256.369 111.95C300.142 92.0757 333.863 101.257 373.994 74.7897C325.341 58.2249 272.608 58.0107 223.821 74.1794V74.1794Z" fill="#F4E0DB"/>
<path d="M197.294 188.171C164.24 223.51 168.158 277.392 168.158 277.392C168.158 277.392 206.452 283.348 209.936 252.888C213.419 222.429 222.247 179.57 228.527 176.014C234.807 172.459 197.294 188.171 197.294 188.171V188.171Z" fill="#C37D5E"/>
<path d="M312.364 161.386L315.774 195.265C315.774 195.265 326.94 185.723 329.754 175.094C332.567 164.466 313.874 153.799 313.874 153.799L312.364 161.386Z" fill="#C37D5E"/>
<path d="M351.149 154.4C348.291 165.609 349.39 169.642 357.346 167.667C365.302 165.693 371.079 152.697 364.523 149.406C357.968 146.114 352.806 147.899 351.149 154.4Z" fill="#C37D5E"/>
<path d="M416.297 201.258C427.177 197.339 432.821 185.341 428.901 174.46C424.981 163.579 412.983 157.936 402.102 161.856C391.222 165.776 385.579 177.774 389.498 188.654C393.418 199.535 405.416 205.178 416.297 201.258Z" fill="#1A1A1A"/>
<path d="M289.501 246.935C300.382 243.015 306.025 231.017 302.105 220.136C298.185 209.256 286.187 203.613 275.307 207.532C264.426 211.452 258.783 223.45 262.703 234.331C266.622 245.211 278.62 250.854 289.501 246.935Z" fill="#1A1A1A"/>
<path d="M420.204 254.356C413.798 272.344 396.341 283.68 377.946 290.306C359.622 296.907 336.928 300.268 320.04 289.926C317.28 288.235 316.181 288.805 316.203 291.645C322.278 318.12 357.807 320.221 384.32 310.863C410.835 301.506 438.448 271.755 424.234 252.687C422.267 250.048 421.114 251.801 420.204 254.357V254.356Z" fill="#1A1A1A"/>
</svg>
