<svg width="596" height="596" viewBox="0 0 596 596" fill="none" xmlns="http://www.w3.org/2000/svg">
<path d="M596 298C596 462.581 462.581 596 298 596C133.419 596 0 462.581 0 298C0 133.419 133.419 0 298 0C462.581 0 596 133.419 596 298V298Z" fill="#A0A0A0"/>
<path d="M485.218 190.745C472.232 219.594 427.791 227.714 385.957 208.883C344.122 190.051 320.736 151.399 333.722 122.55C346.708 93.7017 391.149 85.5811 432.983 104.413C474.818 123.244 498.204 161.897 485.218 190.745Z" fill="#AAAAA3"/>
<path d="M248.879 240.095C238.825 243.561 231.319 239.831 226.236 243.35C221.154 246.869 212.702 251.971 216.084 253.227C219.466 254.483 228.873 253.874 227.651 257.085C226.428 260.296 233.543 264.807 236.37 263.742C239.198 262.676 245.171 261.011 248.098 263.627C251.026 266.242 271.003 261.787 267.603 259.314C264.202 256.841 268.62 251.507 270.168 249.051C271.717 246.596 256.088 237.611 248.879 240.096V240.095Z" fill="#B8B8B8"/>
<path d="M238.999 241.715C231.222 213.835 208.173 185.227 201.327 176.048C194.482 166.87 176.392 134.55 176.392 134.55C176.392 134.55 191.744 155.029 194.432 159.558C197.119 164.088 227.155 202.727 230.298 209.284C233.442 215.841 243.927 242.207 247.233 243.323C250.539 244.439 238.999 241.715 238.999 241.715V241.715Z" fill="#B8B8B8"/>
<path d="M269.084 250.671C293.815 251.29 331.047 264.428 348.829 268.246C366.61 272.063 379.469 274.583 379.469 274.583C379.469 274.583 337.408 267.107 331.911 265.308C326.415 263.51 306.122 257.543 298 256.012C289.878 254.481 268.475 253.968 261.821 257.178C255.167 260.387 251.79 254.164 251.79 254.164L269.084 250.671Z" fill="#B8B8B8"/>
<path d="M67.0572 243.001C66.704 243.001 66.3949 243.236 66.3068 243.577C66.2039 243.985 66.4467 244.399 66.8533 244.508C66.8533 244.508 103.155 253.767 159.956 250.827C159.979 250.826 170.539 250.768 188.855 251.374C193.664 251.532 202.802 252.297 210.902 252.803C214.952 253.055 218.739 253.248 221.634 253.256C223.081 253.256 224.302 253.227 225.242 253.12C225.713 253.068 226.109 252.991 226.455 252.892C226.801 252.792 227.126 252.71 227.41 252.349C227.669 252.014 227.607 251.531 227.271 251.271C226.939 251.009 226.457 251.063 226.194 251.394C226.298 251.261 226.24 251.36 226.035 251.418C225.825 251.477 225.488 251.542 225.071 251.589C224.235 251.681 223.062 251.717 221.646 251.712C218.813 251.695 215.029 251.523 210.992 251.271C202.917 250.767 193.808 249.992 188.9 249.83C170.427 249.22 159.686 249.291 159.667 249.292C103.19 252.187 67.2375 243.021 67.2375 243.021C67.1788 243.004 67.1178 242.998 67.0574 242.998L67.0572 243.001Z" fill="#B8B8B8"/>
<path d="M227.337 255.654C201.637 255.496 153.39 263.07 146.196 265.144Z" fill="#B8B8B8"/>
<path d="M227.34 254.89C214.412 254.811 195.913 256.669 179.721 258.805C171.626 259.872 164.111 261.003 158.164 262.004C152.217 263.005 147.877 263.862 145.979 264.409C145.783 264.467 145.618 264.599 145.52 264.778C145.423 264.957 145.4 265.167 145.457 265.362C145.514 265.558 145.647 265.723 145.825 265.821C146.004 265.918 146.214 265.941 146.41 265.884C148.108 265.395 152.499 264.522 158.425 263.524C164.351 262.527 171.848 261.39 179.926 260.325C196.081 258.194 214.558 256.343 227.329 256.422C227.532 256.423 227.727 256.343 227.872 256.201C228.016 256.058 228.099 255.864 228.101 255.662C228.102 255.459 228.022 255.264 227.88 255.119C227.737 254.974 227.544 254.892 227.341 254.89L227.34 254.89Z" fill="#B8B8B8"/>
<path d="M225.92 250.288C200.308 243.323 166.95 235.632 166.95 235.632Z" fill="#B8B8B8"/>
<path d="M166.946 234.864C166.773 234.864 166.605 234.922 166.469 235.029C166.333 235.136 166.237 235.286 166.197 235.454C166.173 235.554 166.169 235.656 166.185 235.757C166.202 235.858 166.238 235.954 166.292 236.041C166.345 236.128 166.416 236.202 166.499 236.261C166.582 236.321 166.676 236.363 166.776 236.385C166.776 236.385 200.131 244.075 225.718 251.032C225.816 251.059 225.917 251.065 226.018 251.052C226.118 251.039 226.214 251.006 226.302 250.956C226.389 250.905 226.466 250.838 226.527 250.758C226.589 250.677 226.634 250.586 226.66 250.488C226.713 250.293 226.687 250.084 226.587 249.907C226.487 249.731 226.322 249.601 226.126 249.547C200.489 242.575 167.127 234.888 167.127 234.888C167.068 234.873 167.007 234.865 166.946 234.864L166.946 234.864Z" fill="#B8B8B8"/>
<path d="M251.79 254.164C272.332 290.866 287.318 316.226 287.318 316.226Z" fill="#B8B8B8"/>
<path d="M251.712 253.404C251.608 253.414 251.508 253.445 251.416 253.495C251.239 253.594 251.109 253.76 251.053 253.955C250.998 254.151 251.023 254.361 251.121 254.538C271.668 291.247 286.657 316.612 286.657 316.612C286.708 316.699 286.776 316.776 286.857 316.837C286.938 316.898 287.03 316.942 287.128 316.968C287.226 316.993 287.328 316.999 287.428 316.984C287.529 316.97 287.625 316.936 287.712 316.885C287.8 316.833 287.876 316.765 287.937 316.685C287.998 316.604 288.042 316.512 288.068 316.414C288.093 316.315 288.099 316.213 288.084 316.113C288.07 316.013 288.036 315.916 287.984 315.829C287.984 315.829 272.998 290.484 252.46 253.79C252.387 253.66 252.277 253.554 252.143 253.485C252.01 253.417 251.86 253.388 251.711 253.404H251.712Z" fill="#B8B8B8"/>
<path d="M452.514 448.028C425.861 439.29 459.585 403.657 467.272 374.158C474.546 346.242 469.131 290.857 495.783 299.595C522.436 308.333 534.356 348.645 522.408 389.634C510.459 430.622 479.166 456.766 452.514 448.028V448.028Z" fill="#AAAAA3"/>
<path d="M180.073 425.89L179.994 429.567C173.881 429.449 168.181 432.622 165.062 437.894C161.944 443.167 161.898 449.708 164.937 455.027C167.977 460.346 173.63 463.608 179.744 463.582L179.756 467.258C172.324 467.293 165.441 463.313 161.75 456.854C158.058 450.394 158.121 442.437 161.908 436.034C165.696 429.63 172.643 425.747 180.073 425.89H180.073Z" fill="black" fill-opacity="0.25"/>
<path d="M202.011 446.574C202.011 457.978 192.766 467.224 181.361 467.224C169.957 467.224 160.711 457.978 160.711 446.574C160.711 435.169 169.957 425.924 181.361 425.924C192.766 425.924 202.011 435.169 202.011 446.574Z" fill="#B8B8B8"/>
<path d="M181.004 425.913L181.071 429.578C187.179 429.46 192.876 432.638 195.991 437.906C199.107 443.173 199.153 449.702 196.116 455.015C193.08 460.329 187.441 463.597 181.333 463.57L181.309 467.235C188.734 467.264 195.616 463.295 199.304 456.842C202.992 450.389 202.929 442.442 199.145 436.045C195.361 429.648 188.427 425.77 181.003 425.913H181.004Z" fill="black" fill-opacity="0.25"/>
<path d="M179.789 425.966C191.171 425.966 200.397 435.192 200.397 446.574C200.397 457.955 191.171 467.182 179.789 467.182" fill="#B8B8B8"/>
<path d="M124.205 323.808L124.16 325.878C120.706 325.812 117.493 327.61 115.732 330.589C113.97 333.567 113.938 337.262 115.655 340.267C117.372 343.271 120.565 345.114 124.019 345.099L124.025 347.169C119.827 347.189 115.939 344.941 113.854 341.292C111.769 337.643 111.804 333.149 113.944 329.531C116.084 325.914 120.008 323.727 124.205 323.808H124.205Z" fill="black" fill-opacity="0.25"/>
<path d="M136.598 335.488C136.598 341.931 131.375 347.153 124.933 347.153C118.49 347.153 113.268 341.931 113.268 335.488C113.268 329.046 118.49 323.823 124.933 323.823C131.375 323.823 136.598 329.046 136.598 335.488Z" fill="#B8B8B8"/>
<path d="M124.731 323.821L124.769 325.891C128.219 325.824 131.437 327.62 133.197 330.595C134.957 333.571 134.983 337.259 133.268 340.26C131.552 343.262 128.367 345.101 124.916 345.087L124.903 347.157C129.097 347.173 132.985 344.931 135.068 341.286C137.152 337.64 137.116 333.152 134.978 329.538C132.841 325.924 128.923 323.74 124.73 323.821H124.731Z" fill="black" fill-opacity="0.25"/>
<path d="M124.045 323.847C130.474 323.847 135.686 329.059 135.686 335.488C135.686 341.918 130.474 347.129 124.045 347.129" fill="#B8B8B8"/>
<path d="M91.7253 190.691L91.6828 192.647C88.42 192.584 85.3841 194.284 83.7195 197.098C82.0548 199.913 82.0244 203.404 83.6469 206.243C85.2693 209.081 88.2863 210.823 91.5496 210.809L91.5559 212.765C87.5892 212.783 83.9158 210.659 81.9454 207.211C79.9751 203.764 80.0085 199.517 82.0304 196.099C84.0521 192.681 87.7597 190.615 91.7256 190.691H91.7253Z" fill="black" fill-opacity="0.25"/>
<path d="M103.435 201.727C103.435 207.815 98.5002 212.749 92.4131 212.749C86.326 212.749 81.3913 207.815 81.3913 201.727C81.3913 195.64 86.326 190.706 92.4131 190.706C98.5002 190.706 103.435 195.64 103.435 201.727Z" fill="#B8B8B8"/>
<path d="M92.2218 190.704L92.258 192.66C95.5177 192.597 98.5583 194.293 100.221 197.105C101.884 199.916 101.909 203.4 100.288 206.237C98.6672 209.073 95.6576 210.811 92.3974 210.797L92.3849 212.753C96.3477 212.768 100.021 210.65 101.989 207.205C103.958 203.761 103.924 199.52 101.904 196.105C99.8847 192.691 96.1834 190.627 92.2213 190.704H92.2218Z" fill="black" fill-opacity="0.25"/>
<path d="M91.5741 190.729C97.6487 190.729 102.573 195.653 102.573 201.728C102.573 207.802 97.6487 212.727 91.5741 212.727" fill="#B8B8B8"/>
<path d="M80.4974 154.72L80.4614 156.377C77.6976 156.323 75.1261 157.763 73.7161 160.147C72.306 162.531 72.2802 165.488 73.6546 167.892C75.0288 170.297 77.5844 171.772 80.3486 171.76L80.3539 173.417C76.994 173.433 73.8823 171.634 72.2134 168.713C70.5444 165.793 70.5727 162.195 72.2853 159.3C73.9978 156.405 77.1383 154.655 80.4977 154.72H80.4974Z" fill="black" fill-opacity="0.25"/>
<path d="M90.4161 164.068C90.4161 169.224 86.2362 173.404 81.0801 173.404C75.924 173.404 71.7441 169.224 71.7441 164.068C71.7441 158.912 75.924 154.732 81.0801 154.732C86.2362 154.732 90.4161 158.912 90.4161 164.068Z" fill="#B8B8B8"/>
<path d="M80.918 154.73L80.9487 156.387C83.7098 156.334 86.2854 157.771 87.694 160.152C89.1027 162.533 89.1234 165.485 87.7505 167.887C86.3776 170.29 83.8283 171.762 81.0668 171.75L81.0562 173.407C84.4129 173.42 87.5243 171.626 89.1917 168.708C90.859 165.79 90.8307 162.198 89.1197 159.306C87.4089 156.413 84.2737 154.665 80.9176 154.73H80.918Z" fill="black" fill-opacity="0.25"/>
<path d="M80.3695 154.751C85.5151 154.751 89.6864 158.922 89.6864 164.068C89.6864 169.213 85.5151 173.385 80.3695 173.385" fill="#B8B8B8"/>
<path d="M340.575 387.248L340.522 389.678C336.468 389.599 332.697 391.711 330.629 395.207C328.561 398.703 328.523 403.04 330.539 406.567C332.554 410.094 336.302 412.257 340.356 412.24L340.364 414.67C335.436 414.693 330.873 412.054 328.425 407.771C325.977 403.488 326.019 398.212 328.53 393.966C331.042 389.72 335.648 387.152 340.575 387.248H340.575Z" fill="black" fill-opacity="0.25"/>
<path d="M355.122 400.958C355.122 408.521 348.992 414.651 341.43 414.651C333.867 414.651 327.737 408.521 327.737 400.958C327.737 393.396 333.867 387.266 341.43 387.266C348.992 387.266 355.122 393.396 355.122 400.958Z" fill="#B8B8B8"/>
<path d="M341.192 387.263L341.237 389.693C345.286 389.615 349.064 391.722 351.13 395.215C353.196 398.708 353.226 403.036 351.213 406.56C349.199 410.083 345.46 412.242 341.41 412.225L341.394 414.655C346.318 414.674 350.881 412.043 353.326 407.764C355.772 403.485 355.73 398.215 353.221 393.974C350.712 389.732 346.113 387.168 341.191 387.263H341.192Z" fill="black" fill-opacity="0.25"/>
<path d="M340.387 387.294C347.934 387.294 354.052 393.412 354.052 400.958C354.052 408.505 347.934 414.623 340.387 414.623" fill="#B8B8B8"/>
<path d="M222.941 53.0394L222.917 54.1689C221.033 54.1325 219.28 55.1139 218.319 56.739C217.357 58.364 217.34 60.3798 218.277 62.0191C219.214 63.6584 220.956 64.6638 222.84 64.6556L222.844 65.7851C220.553 65.7958 218.432 64.5694 217.294 62.5786C216.157 60.5877 216.176 58.1355 217.343 56.162C218.511 54.1885 220.652 52.9952 222.942 53.0394H222.941Z" fill="black" fill-opacity="0.25"/>
<path d="M229.703 59.4122C229.703 62.9271 226.854 65.7765 223.339 65.7765C219.824 65.7765 216.974 62.9271 216.974 59.4122C216.974 55.8973 219.824 53.0479 223.339 53.0479C226.854 53.0479 229.703 55.8973 229.703 59.4122Z" fill="#B8B8B8"/>
<path d="M223.228 53.0465L223.249 54.1759C225.131 54.1396 226.887 55.1191 227.847 56.7426C228.808 58.366 228.822 60.378 227.886 62.0157C226.95 63.6534 225.212 64.6568 223.33 64.6487L223.322 65.7782C225.611 65.7871 227.732 64.564 228.868 62.5752C230.005 60.5863 229.986 58.1372 228.819 56.1656C227.653 54.194 225.516 53.0023 223.228 53.0465H223.228Z" fill="black" fill-opacity="0.25"/>
<path d="M222.854 53.0608C226.362 53.0608 229.205 55.9043 229.205 59.412C229.205 62.9197 226.362 65.7632 222.854 65.7632" fill="#B8B8B8"/>
<path d="M332.021 102.243L331.987 103.789C329.41 103.739 327.011 105.082 325.696 107.305C324.381 109.528 324.357 112.286 325.639 114.529C326.92 116.771 329.304 118.147 331.882 118.136L331.887 119.681C328.753 119.696 325.851 118.018 324.295 115.294C322.738 112.57 322.764 109.215 324.362 106.515C325.959 103.815 328.888 102.183 332.021 102.243H332.021Z" fill="black" fill-opacity="0.25"/>
<path d="M341.272 110.962C341.272 115.771 337.373 119.669 332.564 119.669C327.756 119.669 323.857 115.771 323.857 110.962C323.857 106.153 327.756 102.255 332.564 102.255C337.373 102.255 341.272 106.153 341.272 110.962Z" fill="#B8B8B8"/>
<path d="M332.413 102.253L332.442 103.798C335.017 103.748 337.419 105.089 338.733 107.31C340.047 109.531 340.066 112.283 338.786 114.524C337.505 116.765 335.128 118.138 332.552 118.126L332.542 119.672C335.673 119.684 338.575 118.011 340.13 115.29C341.685 112.568 341.658 109.218 340.063 106.52C338.467 103.823 335.543 102.192 332.413 102.253H332.413Z" fill="black" fill-opacity="0.25"/>
<path d="M331.902 102.273C336.701 102.273 340.591 106.163 340.591 110.962C340.591 115.761 336.701 119.651 331.902 119.651" fill="#B8B8B8"/>
<path d="M156.231 167.352L156.193 169.101C153.275 169.045 150.56 170.565 149.071 173.082C147.582 175.599 147.555 178.721 149.006 181.26C150.457 183.799 153.155 185.356 156.074 185.344L156.079 187.093C152.532 187.11 149.246 185.21 147.484 182.127C145.722 179.043 145.752 175.245 147.56 172.189C149.368 169.132 152.684 167.284 156.231 167.352H156.231Z" fill="black" fill-opacity="0.25"/>
<path d="M166.704 177.222C166.704 182.666 162.29 187.08 156.846 187.08C151.402 187.08 146.989 182.666 146.989 177.222C146.989 171.778 151.402 167.365 156.846 167.365C162.29 167.365 166.704 171.778 166.704 177.222Z" fill="#B8B8B8"/>
<path d="M156.675 167.363L156.708 169.112C159.623 169.056 162.342 170.573 163.83 173.088C165.317 175.602 165.339 178.718 163.889 181.255C162.44 183.792 159.748 185.346 156.832 185.333L156.821 187.083C160.365 187.096 163.651 185.202 165.411 182.122C167.172 179.041 167.142 175.248 165.335 172.194C163.529 169.14 160.219 167.295 156.675 167.363H156.675Z" fill="black" fill-opacity="0.25"/>
<path d="M156.096 167.385C161.529 167.385 165.933 171.79 165.933 177.222C165.933 182.655 161.529 187.06 156.096 187.06" fill="#B8B8B8"/>
<path d="M201.895 362.55L201.85 364.613C198.408 364.547 195.205 366.34 193.449 369.309C191.693 372.278 191.661 375.961 193.373 378.956C195.084 381.951 198.267 383.788 201.71 383.773L201.716 385.837C197.532 385.856 193.656 383.615 191.578 379.978C189.499 376.341 189.534 371.861 191.667 368.255C193.8 364.649 197.711 362.469 201.895 362.55H201.895Z" fill="black" fill-opacity="0.25"/>
<path d="M214.249 374.193C214.249 380.615 209.043 385.821 202.621 385.821C196.199 385.821 190.993 380.615 190.993 374.193C190.993 367.771 196.199 362.565 202.621 362.565C209.043 362.565 214.249 367.771 214.249 374.193Z" fill="#B8B8B8"/>
<path d="M202.419 362.562L202.457 364.626C205.896 364.56 209.104 366.349 210.858 369.315C212.613 372.281 212.639 375.957 210.929 378.949C209.219 381.942 206.044 383.775 202.604 383.76L202.591 385.824C206.772 385.84 210.647 383.605 212.724 379.972C214.8 376.338 214.765 371.863 212.634 368.261C210.503 364.659 206.598 362.482 202.418 362.562H202.419Z" fill="black" fill-opacity="0.25"/>
<path d="M201.736 362.589C208.144 362.589 213.339 367.784 213.339 374.193C213.339 380.601 208.144 385.797 201.736 385.797" fill="#B8B8B8"/>
<path d="M188.488 93.6291L188.464 94.7668C186.566 94.7302 184.8 95.7188 183.832 97.3557C182.864 98.9926 182.846 101.023 183.79 102.674C184.733 104.326 186.488 105.338 188.386 105.33L188.39 106.468C186.083 106.479 183.946 105.243 182.8 103.238C181.654 101.233 181.673 98.7625 182.849 96.7745C184.025 94.7866 186.182 93.5845 188.489 93.6291H188.488Z" fill="black" fill-opacity="0.25"/>
<path d="M195.299 100.048C195.299 103.589 192.429 106.459 188.888 106.459C185.348 106.459 182.478 103.589 182.478 100.048C182.478 96.5078 185.348 93.6375 188.888 93.6375C192.429 93.6375 195.299 96.5078 195.299 100.048Z" fill="#B8B8B8"/>
<path d="M188.777 93.6361L188.798 94.7739C190.694 94.7373 192.463 95.724 193.43 97.3593C194.397 98.9946 194.412 101.021 193.469 102.671C192.526 104.321 190.776 105.331 188.879 105.323L188.872 106.461C191.177 106.47 193.313 105.238 194.458 103.235C195.603 101.231 195.584 98.7641 194.409 96.7781C193.234 94.792 191.081 93.5916 188.777 93.6361H188.777Z" fill="black" fill-opacity="0.25"/>
<path d="M188.401 93.6505C191.934 93.6505 194.798 96.5148 194.798 100.048C194.798 103.581 191.934 106.446 188.401 106.446" fill="#B8B8B8"/>
<path d="M75.209 267.532L75.158 269.883C71.2364 269.807 67.5876 271.85 65.5868 275.232C63.586 278.615 63.5495 282.81 65.4996 286.223C67.4495 289.635 71.0757 291.727 74.9979 291.711L75.0054 294.062C70.2379 294.084 65.8227 291.531 63.4546 287.387C61.0864 283.243 61.1266 278.139 63.5567 274.031C65.9866 269.923 70.4428 267.44 75.2095 267.532H75.209Z" fill="black" fill-opacity="0.25"/>
<path d="M89.2827 280.796C89.2827 288.112 83.3518 294.043 76.0356 294.043C68.7195 294.043 62.7885 288.112 62.7885 280.796C62.7885 273.48 68.7195 267.549 76.0356 267.549C83.3518 267.549 89.2827 273.48 89.2827 280.796Z" fill="#B8B8B8"/>
<path d="M75.8055 267.546L75.8491 269.897C79.7668 269.821 83.4214 271.86 85.4202 275.239C87.419 278.619 87.4484 282.807 85.5004 286.215C83.5523 289.624 79.9351 291.713 76.0166 291.696L76.0016 294.047C80.7645 294.066 85.1795 291.52 87.5453 287.38C89.9111 283.24 89.8709 278.142 87.4432 274.038C85.0157 269.935 80.567 267.454 75.8049 267.546H75.8055Z" fill="black" fill-opacity="0.25"/>
<path d="M75.0271 267.576C82.3283 267.576 88.247 273.495 88.247 280.796C88.247 288.097 82.3283 294.016 75.0271 294.016" fill="#B8B8B8"/>
<path d="M254.024 502.182L253.975 504.442C250.205 504.369 246.698 506.333 244.774 509.584C242.851 512.835 242.816 516.868 244.691 520.148C246.565 523.428 250.051 525.44 253.821 525.424L253.828 527.683C249.245 527.705 245.001 525.251 242.725 521.268C240.449 517.285 240.487 512.378 242.823 508.43C245.159 504.481 249.442 502.093 254.024 502.182H254.024Z" fill="black" fill-opacity="0.25"/>
<path d="M267.552 514.932C267.552 521.965 261.851 527.666 254.819 527.666C247.786 527.666 242.085 521.965 242.085 514.932C242.085 507.9 247.786 502.199 254.819 502.199C261.851 502.199 267.552 507.9 267.552 514.932Z" fill="#B8B8B8"/>
<path d="M254.597 502.196L254.639 504.456C258.405 504.383 261.918 506.343 263.839 509.591C265.761 512.839 265.789 516.865 263.916 520.142C262.044 523.418 258.567 525.426 254.8 525.41L254.786 527.67C259.364 527.687 263.608 525.24 265.882 521.261C268.156 517.282 268.117 512.381 265.784 508.437C263.45 504.492 259.174 502.108 254.597 502.196H254.597Z" fill="black" fill-opacity="0.25"/>
<path d="M253.849 502.225C260.867 502.225 266.556 507.914 266.556 514.932C266.556 521.95 260.867 527.64 253.849 527.64" fill="#B8B8B8"/>
<path d="M300.613 520.962L300.566 523.121C296.966 523.051 293.616 524.927 291.779 528.032C289.942 531.137 289.909 534.99 291.699 538.122C293.489 541.255 296.818 543.176 300.419 543.16L300.426 545.319C296.049 545.339 291.996 542.996 289.822 539.191C287.648 535.387 287.684 530.701 289.915 526.93C292.146 523.158 296.237 520.878 300.614 520.962H300.613Z" fill="black" fill-opacity="0.25"/>
<path d="M313.534 533.14C313.534 539.857 308.089 545.302 301.372 545.302C294.656 545.302 289.211 539.857 289.211 533.14C289.211 526.423 294.656 520.978 301.372 520.978C308.089 520.978 313.534 526.423 313.534 533.14Z" fill="#B8B8B8"/>
<path d="M301.161 520.976L301.201 523.134C304.798 523.065 308.153 524.937 309.988 528.039C311.823 531.141 311.85 534.986 310.062 538.116C308.273 541.245 304.952 543.163 301.355 543.147L301.341 545.306C305.714 545.323 309.767 542.985 311.939 539.185C314.111 535.384 314.074 530.704 311.845 526.936C309.617 523.169 305.533 520.892 301.161 520.976H301.161Z" fill="black" fill-opacity="0.25"/>
<path d="M300.446 521.003C307.149 521.003 312.583 526.437 312.583 533.14C312.583 539.843 307.149 545.277 300.446 545.277" fill="#B8B8B8"/>
<path d="M414.28 157.097L414.259 158.066C412.642 158.035 411.137 158.877 410.312 160.272C409.487 161.667 409.472 163.397 410.276 164.804C411.08 166.212 412.576 167.074 414.193 167.068L414.196 168.037C412.23 168.046 410.409 166.993 409.433 165.285C408.456 163.576 408.473 161.471 409.475 159.777C410.477 158.083 412.315 157.059 414.28 157.097H414.28Z" fill="black" fill-opacity="0.25"/>
<path d="M420.084 162.567C420.084 165.584 417.638 168.03 414.621 168.03C411.604 168.03 409.158 165.584 409.158 162.567C409.158 159.55 411.604 157.104 414.621 157.104C417.638 157.104 420.084 159.55 420.084 162.567Z" fill="#B8B8B8"/>
<path d="M414.526 157.102L414.544 158.072C416.16 158.041 417.667 158.881 418.491 160.275C419.316 161.668 419.328 163.395 418.524 164.801C417.721 166.207 416.229 167.068 414.613 167.061L414.607 168.031C416.571 168.038 418.392 166.989 419.368 165.281C420.343 163.574 420.327 161.472 419.325 159.78C418.324 158.087 416.49 157.064 414.526 157.102H414.526Z" fill="black" fill-opacity="0.25"/>
<path d="M414.205 157.115C417.216 157.115 419.657 159.556 419.657 162.567C419.657 165.577 417.216 168.018 414.205 168.018" fill="#B8B8B8"/>
<path d="M298.158 154.817L298.119 156.621C295.109 156.563 292.309 158.131 290.773 160.727C289.238 163.323 289.21 166.543 290.707 169.162C292.203 171.78 294.986 173.386 297.996 173.373L298.002 175.178C294.343 175.195 290.955 173.236 289.137 170.055C287.32 166.875 287.35 162.958 289.215 159.805C291.08 156.653 294.5 154.746 298.158 154.817H298.158Z" fill="black" fill-opacity="0.25"/>
<path d="M308.959 164.997C308.959 170.612 304.408 175.163 298.793 175.163C293.178 175.163 288.626 170.612 288.626 164.997C288.626 159.382 293.178 154.83 298.793 154.83C304.408 154.83 308.959 159.382 308.959 164.997Z" fill="#B8B8B8"/>
<path d="M298.616 154.828L298.65 156.633C301.656 156.574 304.461 158.139 305.995 160.733C307.529 163.326 307.552 166.54 306.057 169.156C304.561 171.772 301.785 173.375 298.778 173.362L298.767 175.166C302.422 175.181 305.81 173.227 307.626 170.05C309.442 166.873 309.411 162.96 307.548 159.811C305.685 156.661 302.27 154.758 298.616 154.828H298.616Z" fill="black" fill-opacity="0.25"/>
<path d="M298.019 154.851C303.622 154.851 308.164 159.394 308.164 164.997C308.164 170.6 303.622 175.143 298.019 175.143" fill="#B8B8B8"/>
<path d="M525.354 355.855L525.302 358.229C521.342 358.153 517.657 360.216 515.636 363.632C513.616 367.048 513.579 371.285 515.548 374.731C517.517 378.177 521.18 380.29 525.141 380.273L525.148 382.648C520.333 382.67 515.875 380.092 513.483 375.907C511.091 371.722 511.132 366.567 513.586 362.419C516.04 358.27 520.54 355.762 525.354 355.855H525.354Z" fill="black" fill-opacity="0.25"/>
<path d="M539.567 369.251C539.567 376.64 533.577 382.63 526.189 382.63C518.8 382.63 512.81 376.64 512.81 369.251C512.81 361.862 518.8 355.873 526.189 355.873C533.577 355.873 539.567 361.862 539.567 369.251Z" fill="#B8B8B8"/>
<path d="M525.957 355.87L526 358.244C529.957 358.168 533.648 360.227 535.667 363.639C537.685 367.052 537.715 371.281 535.747 374.724C533.78 378.167 530.127 380.276 526.17 380.259L526.155 382.633C530.965 382.652 535.423 380.081 537.813 375.9C540.202 371.719 540.161 366.571 537.71 362.426C535.258 358.282 530.765 355.777 525.956 355.87H525.957Z" fill="black" fill-opacity="0.25"/>
<path d="M525.17 355.9C532.544 355.9 538.521 361.877 538.521 369.251C538.521 376.624 532.544 382.602 525.17 382.602" fill="#B8B8B8"/>
<path d="M460.958 340.206L460.91 342.421C457.214 342.35 453.775 344.276 451.889 347.464C450.003 350.652 449.969 354.606 451.807 357.822C453.645 361.038 457.062 363.011 460.759 362.995L460.766 365.211C456.273 365.232 452.111 362.826 449.879 358.92C447.647 355.014 447.685 350.203 449.975 346.332C452.266 342.46 456.466 340.119 460.958 340.206H460.958Z" fill="black" fill-opacity="0.25"/>
<path d="M474.223 352.708C474.223 359.603 468.633 365.193 461.737 365.193C454.842 365.193 449.252 359.603 449.252 352.708C449.252 345.812 454.842 340.222 461.737 340.222C468.633 340.222 474.223 345.812 474.223 352.708Z" fill="#B8B8B8"/>
<path d="M461.52 340.219L461.561 342.435C465.254 342.364 468.698 344.285 470.582 347.47C472.466 350.655 472.494 354.602 470.658 357.815C468.822 361.028 465.412 362.997 461.719 362.981L461.705 365.197C466.194 365.214 470.355 362.815 472.585 358.913C474.815 355.011 474.777 350.206 472.489 346.338C470.201 342.47 466.008 340.132 461.52 340.219H461.52Z" fill="black" fill-opacity="0.25"/>
<path d="M460.786 340.248C467.668 340.248 473.246 345.826 473.246 352.708C473.246 359.589 467.668 365.168 460.786 365.168" fill="#B8B8B8"/>
<path d="M408.401 391.243L408.369 392.722C405.902 392.675 403.606 393.96 402.348 396.088C401.089 398.215 401.066 400.855 402.293 403.001C403.52 405.148 405.801 406.464 408.268 406.454L408.273 407.933C405.274 407.947 402.496 406.341 401.006 403.734C399.517 401.127 399.542 397.916 401.071 395.332C402.599 392.748 405.402 391.185 408.401 391.243H408.401Z" fill="black" fill-opacity="0.25"/>
<path d="M417.254 399.588C417.254 404.19 413.523 407.921 408.921 407.921C404.318 407.921 400.587 404.19 400.587 399.588C400.587 394.985 404.318 391.254 408.921 391.254C413.523 391.254 417.254 394.985 417.254 399.588Z" fill="#B8B8B8"/>
<path d="M408.776 391.252L408.804 392.731C411.268 392.684 413.567 393.966 414.825 396.092C416.082 398.218 416.1 400.852 414.875 402.997C413.65 405.141 411.374 406.455 408.909 406.444L408.9 407.923C411.896 407.935 414.673 406.333 416.161 403.729C417.65 401.125 417.624 397.918 416.097 395.336C414.57 392.755 411.772 391.194 408.776 391.252H408.776Z" fill="black" fill-opacity="0.25"/>
<path d="M408.286 391.271C412.879 391.271 416.603 394.995 416.603 399.588C416.603 404.181 412.879 407.904 408.286 407.904" fill="#B8B8B8"/>
<path d="M298 595.97C462.564 595.97 595.97 462.565 595.97 298C595.97 133.436 462.564 0.0296631 298 0.0296631C133.435 0.0296631 0.0295105 133.436 0.0295105 298C0.0295105 462.565 133.435 595.97 298 595.97Z" fill="url(#paint0_radial_6_1516)"/>
<path d="M302.349 273.287C301.175 273.309 300.021 273.6 298.977 274.137C297.932 274.673 297.025 275.443 296.324 276.385C295.721 277.195 295.284 278.115 295.037 279.094C294.79 280.073 294.738 281.091 294.884 282.09C295.031 283.088 295.373 284.049 295.89 284.915C296.408 285.782 297.091 286.538 297.901 287.141C326.666 308.544 357.316 323.56 390.791 325.547C424.265 327.534 459.989 316.223 497.942 287.061C499.555 285.819 500.609 283.987 500.873 281.969C501.136 279.95 500.588 277.909 499.349 276.294C498.734 275.493 497.968 274.821 497.094 274.316C496.219 273.811 495.254 273.483 494.253 273.352C493.252 273.22 492.235 273.287 491.26 273.548C490.285 273.81 489.371 274.261 488.57 274.876C452.756 302.395 421.144 311.955 391.698 310.207C362.252 308.459 334.401 295.145 307.069 274.808C305.707 273.793 304.047 273.259 302.349 273.287V273.287Z" fill="#1A1A1A"/>
<path d="M354.188 160.974C346.943 160.974 340.935 164.895 336.761 169.733C332.587 174.571 329.739 180.453 327.571 186.162C323.235 197.579 321.728 208.718 321.728 208.718C321.617 209.518 321.665 210.332 321.869 211.113C322.074 211.895 322.43 212.629 322.918 213.272C323.406 213.916 324.016 214.458 324.713 214.865C325.41 215.273 326.181 215.54 326.981 215.65C327.781 215.761 328.595 215.712 329.377 215.508C330.158 215.304 330.892 214.948 331.536 214.46C332.179 213.972 332.721 213.362 333.129 212.665C333.537 211.968 333.803 211.197 333.913 210.397C333.913 210.397 335.343 200.319 339.064 190.519C340.925 185.619 343.385 180.885 346.076 177.766C348.767 174.647 351.185 173.273 354.188 173.273C357.208 173.273 359.877 174.729 362.8 177.913C365.723 181.098 368.45 185.87 370.583 190.791C374.851 200.633 376.812 210.714 376.812 210.714C377.12 212.315 378.05 213.728 379.399 214.643C380.748 215.558 382.405 215.9 384.006 215.593C384.799 215.442 385.555 215.136 386.23 214.693C386.906 214.25 387.487 213.678 387.941 213.01C388.395 212.342 388.714 211.591 388.877 210.8C389.041 210.009 389.047 209.193 388.896 208.4C388.896 208.4 386.793 197.265 381.861 185.89C379.395 180.202 376.245 174.369 371.865 169.597C367.486 164.825 361.441 160.974 354.188 160.974V160.974Z" fill="#1A1A1A"/>
<path d="M439.499 160.974C432.253 160.974 426.245 164.895 422.071 169.733C417.898 174.571 415.049 180.453 412.881 186.162C408.546 197.579 407.038 208.718 407.038 208.718C406.927 209.518 406.975 210.332 407.18 211.113C407.384 211.895 407.74 212.629 408.228 213.272C408.716 213.916 409.326 214.458 410.023 214.865C410.72 215.273 411.491 215.54 412.291 215.65C413.091 215.761 413.905 215.712 414.687 215.508C415.468 215.304 416.202 214.948 416.846 214.46C417.489 213.972 418.031 213.362 418.439 212.665C418.847 211.968 419.113 211.197 419.223 210.397C419.223 210.397 420.653 200.319 424.374 190.519C426.235 185.619 428.695 180.885 431.386 177.766C434.077 174.647 436.496 173.273 439.499 173.273C442.518 173.273 445.187 174.729 448.11 177.913C451.033 181.098 453.76 185.87 455.893 190.791C460.161 200.633 462.122 210.714 462.122 210.714C462.275 211.508 462.582 212.264 463.026 212.939C463.471 213.614 464.044 214.194 464.713 214.648C465.382 215.101 466.134 215.417 466.926 215.58C467.718 215.742 468.534 215.747 469.327 215.593C470.928 215.286 472.341 214.355 473.256 213.007C474.17 211.658 474.512 210.001 474.206 208.4C474.206 208.4 472.103 197.265 467.171 185.89C464.705 180.202 461.555 174.369 457.176 169.597C452.796 164.825 446.751 160.974 439.499 160.974V160.974Z" fill="#1A1A1A"/>
<defs>
<radialGradient id="paint0_radial_6_1516" cx="0" cy="0" r="1" gradientUnits="userSpaceOnUse" gradientTransform="translate(502.128 295.65) scale(310.156 647.288)">
<stop stop-color="#666666" stop-opacity="0"/>
<stop offset="1" stop-color="#343434" stop-opacity="0.294267"/>
</radialGradient>
</defs>
</svg>
