<svg width="596" height="596" viewBox="0 0 596 596" fill="none" xmlns="http://www.w3.org/2000/svg">
<path d="M538.173 355.827C506.236 488.471 372.817 570.11 240.173 538.173C107.529 506.236 25.8902 372.816 57.8273 240.173C89.7644 107.529 223.184 25.8902 355.827 57.8272C488.471 89.7644 570.11 223.183 538.173 355.827Z" fill="#7894C2"/>
<path d="M482.962 437.802C477.1 436.217 469.783 436.385 461.397 439.285C406.958 458.107 378.958 454.132 322.064 445.139C265.169 436.146 239.209 413.177 197.043 395.5C170.553 384.395 143.98 406.504 164.061 427.042C216.397 480.57 239.545 487.708 313.486 499.396C375.7 509.229 408.389 508.519 456.677 487.335C471.134 475.219 484.156 461.488 495.488 446.408C492.89 442.494 488.611 439.33 482.962 437.802V437.802Z" fill="#708AB6"/>
<path d="M355.215 57.6796C354.669 57.5493 354.121 57.4209 353.574 57.2946C289.864 42.5844 222.921 53.7324 167.416 88.2954C227.522 140.137 282.363 166.975 326.962 177.713C392.08 193.392 458.766 201.635 525.741 202.286C525.743 202.276 525.744 202.271 525.741 202.261C524.793 200.007 523.811 197.773 522.801 195.556C521.799 193.354 520.765 191.172 519.7 189.007L519.651 188.934C519.651 188.909 519.602 188.874 519.602 188.847C518.567 186.747 517.505 184.663 516.415 182.6L516.366 182.54L516.204 182.232C515.133 180.214 514.037 178.216 512.915 176.234L512.748 175.932L512.699 175.892C511.575 173.914 510.42 171.954 509.243 170.011C509.154 169.866 509.066 169.722 508.977 169.577C507.794 167.631 506.582 165.704 505.347 163.795L505.152 163.492C503.914 161.585 502.649 159.696 501.362 157.828C501.259 157.681 501.161 157.534 501.057 157.387C499.802 155.572 498.524 153.776 497.222 151.999L497.152 151.904C497.044 151.758 496.937 151.612 496.828 151.466C495.528 149.702 494.206 147.957 492.861 146.23L492.605 145.896L492.542 145.809C491.145 144.024 489.724 142.26 488.281 140.516L488.099 140.298C486.629 138.524 485.132 136.771 483.613 135.041L483.377 134.772C481.869 133.059 480.341 131.369 478.787 129.7L478.59 129.487C476.991 127.774 475.371 126.083 473.726 124.417C473.727 124.412 473.728 124.407 473.73 124.402C472.06 122.712 470.366 121.046 468.648 119.405L468.65 119.395C468.647 119.392 468.651 119.39 468.652 119.385C466.927 117.737 465.18 116.115 463.409 114.519C461.633 112.919 459.834 111.344 458.014 109.796C456.223 108.273 454.412 106.778 452.578 105.307L452.489 105.234C452.44 105.209 452.43 105.189 452.395 105.16C450.587 103.713 448.76 102.291 446.912 100.895L446.828 100.829C446.779 100.804 446.774 100.789 446.75 100.77C444.88 99.3596 442.991 97.9763 441.08 96.6191L441.031 96.5895C441.033 96.5847 440.982 96.5698 440.982 96.5599C439.081 95.2099 437.157 93.8888 435.217 92.5924L434.98 92.4335C433.031 91.1345 431.065 89.8625 429.079 88.6186C427.081 87.3676 425.065 86.1461 423.03 84.9516L422.933 84.8926C422.934 84.8878 422.883 84.8681 422.868 84.8582C420.84 83.6692 418.791 82.5093 416.727 81.3776L416.664 81.3432C416.665 81.3385 416.614 81.3235 416.614 81.3186C414.573 80.2012 412.516 79.1135 410.442 78.0528L410.126 77.893C408.111 76.866 406.08 75.8649 404.033 74.8919L403.97 74.8624L403.641 74.708C401.557 73.7218 399.453 72.7634 397.338 71.8341L397.234 71.784C397.235 71.7803 397.185 71.7692 397.176 71.7594L397.177 71.7548C395.052 70.8233 392.91 69.921 390.755 69.0479L390.455 68.9255C388.283 68.0497 386.098 67.2037 383.898 66.388L383.722 66.325C381.526 65.5127 379.316 64.7301 377.092 63.9787L376.787 63.875C374.537 63.1178 372.272 62.3902 369.993 61.6959C369.993 61.6955 369.993 61.6963 369.993 61.6959C367.667 60.9876 365.326 60.3122 362.972 59.671C360.612 59.028 358.239 58.4189 355.853 57.8443C355.646 57.7947 355.444 57.7455 355.24 57.6968L355.215 57.6796Z" fill="#758FBB"/>
<path d="M328.001 307.09C391.648 325.52 436.001 313.997 380.565 281.992C295.415 232.831 242.371 252.856 254.88 265.907C271.122 282.853 306.904 300.982 328.001 307.09V307.09Z" fill="#708AB6"/>
<path d="M266.709 243.96C268.942 259.895 287.245 278.802 287.245 278.802C287.245 278.802 256.013 269.301 250.728 268.028C245.443 266.756 245.678 276.772 264.503 284.255C283.915 291.972 325.195 309.32 321.194 303.04C317.191 296.76 284.074 285.588 284.074 285.588C284.074 285.588 306.721 286.887 301.215 281.173C299.776 279.68 283.35 271.9 279.539 259.944C275.727 247.987 264.383 227.37 266.709 243.96V243.96Z" fill="#B7C4E3"/>
<path d="M450.849 332.221L446.163 330.609C446.163 330.609 458.653 333.62 466.466 334.352C474.295 335.086 489.7 338.056 489.7 338.056L458.309 334.647C458.309 334.647 438.122 330.73 433.679 329.968C429.236 329.206 413.243 323.725 411.156 323.091C415.47 323.33 432.773 329.499 450.849 332.221V332.221Z" fill="#B7C4E3"/>
<path d="M337.421 380.099C342.092 380.485 381.959 400.759 404.745 401.457C427.332 402.149 454.508 396.736 458.869 398.581C466.412 401.771 413.421 412.242 380.863 401.557C348.304 390.873 336.715 383.18 337.421 380.099Z" fill="#B7C4E3"/>
<path d="M72.9971 196.017C72.1288 197.934 71.2845 199.863 70.4655 201.802C96.7445 226.429 151.189 266.91 155.404 266.205C160.626 265.333 93.0502 218.618 83.0598 207.32C79.9303 203.78 76.4472 199.884 72.9971 196.017V196.017Z" fill="#B7C4E3"/>
<path d="M480.445 227.682C492.406 227.374 501.853 217.428 501.545 205.467C501.237 193.507 491.291 184.06 479.33 184.368C467.369 184.676 457.923 194.622 458.231 206.583C458.539 218.543 468.484 227.99 480.445 227.682Z" fill="#1A1A1A"/>
<path d="M341.066 231.272C353.027 230.964 362.474 221.018 362.166 209.057C361.858 197.096 351.911 187.65 339.951 187.958C327.99 188.266 318.543 198.212 318.851 210.172C319.159 222.133 329.105 231.579 341.066 231.272Z" fill="#1A1A1A"/>
<path d="M467.002 281.099C454.857 296.678 434.023 302.128 413.802 302.649C393.66 303.167 370.28 299.082 357.062 283.429C354.901 280.871 353.637 281.073 352.734 283.869C350.084 311.844 384.29 325.471 413.373 324.911C442.455 324.351 479.255 304.122 471.502 280.77C470.429 277.538 468.727 278.885 467.002 281.099V281.099Z" fill="#1A1A1A"/>
</svg>
