<svg width="831" height="375" viewBox="0 0 831 375" fill="none" xmlns="http://www.w3.org/2000/svg">
<path d="M580.938 213.922C566.346 302.883 482.399 363.171 393.438 348.578C304.477 333.986 244.189 250.04 258.781 161.078C273.373 72.1173 357.32 11.8293 446.281 26.4216C535.242 41.0138 595.531 124.96 580.938 213.922V213.922Z" fill="#C4B372"/>
<path d="M446.281 26.4219C357.321 11.8308 273.376 72.1176 258.783 161.077C252.411 199.917 260.288 239.751 280.963 273.243C320.129 286.193 341.898 298.395 382.606 305.073C423.314 311.75 482.837 312.882 524.089 313.123C554.379 287.991 574.568 252.761 580.939 213.92C595.53 124.959 535.242 41.0135 446.281 26.4219V26.4219Z" fill="#D3BA7A"/>
<path d="M446.281 26.4219C357.321 11.8308 273.376 72.1176 258.783 161.077C256.809 173.108 256.19 185.322 256.936 197.491C306.867 216.607 357.515 237.281 410.275 245.935C463.035 254.589 517.633 251.179 571.055 249.016C575.65 237.723 578.965 225.951 580.939 213.92C595.53 124.959 535.242 41.0135 446.281 26.4219V26.4219Z" fill="#DEC88A"/>
<path d="M446.281 26.4215C365.189 13.1196 286.851 62.1748 263.41 140.936C314.151 160.573 403.118 179.839 456.809 188.647C510.5 197.453 528.627 195.755 582.982 193.358C585.932 111.236 527.372 39.7241 446.281 26.4215V26.4215Z" fill="#DBBD78"/>
<path d="M446.281 26.4217C384.788 16.3357 322.918 42.1405 286.816 92.9314C330.07 115.268 336.597 116.412 385.136 124.374C433.675 132.336 526.291 138.648 576.145 140.39C558.16 80.7262 507.775 36.5081 446.281 26.4217V26.4217Z" fill="#CCC378"/>
<path d="M446.282 26.4215C442.049 25.8306 437.724 25.2262 433.942 24.8657C408.037 22.7943 382.46 26.6589 358.559 36.2147C358.559 36.2267 358.499 36.2348 358.475 36.2467C344.795 42.3257 333.994 48.0175 323.044 56.0777C322.992 56.0937 322.992 56.1137 322.968 56.1316C360.21 68.1113 413.262 78.0677 451.868 84.3996C487.704 90.2772 504.442 88.0658 548.066 86.4595C523.951 55.858 489.685 34.8916 451.461 27.349C449.737 27.0287 448.014 26.6975 446.284 26.4137L446.282 26.4215Z" fill="#C7BA7A"/>
<path d="M279.422 104.304C117.425 91.9079 6.54337 108.903 0.282454 147.089C-8.09545 198.179 170.929 270.075 400.148 307.673C629.367 345.272 821.98 334.335 830.362 283.246C836.627 245.061 736.983 193.533 579.514 153.528C580 155.811 580.437 158.105 580.825 160.407C703.712 194.066 778.89 235.201 773.835 266.017C766.621 309.993 600.831 319.406 403.532 287.043C206.233 254.68 52.138 192.796 59.3506 148.821C64.4057 118.005 148.785 103.041 275.986 110.404C277.087 108.346 278.233 106.312 279.422 104.304V104.304Z" fill="#B2A074" fill-opacity="0.524148"/>
<path d="M275.204 111.877C151.115 104.738 69.1336 119.053 64.2722 148.71C57.2775 191.349 209.413 251.8 404.076 283.731C598.739 315.661 762.214 306.98 769.208 264.34C774.075 234.684 700.963 194.929 581.095 162.052C582.258 169.417 582.913 176.852 583.059 184.307C620.132 199.518 639.681 214.832 637.673 227.091C633.34 253.516 532.031 258.897 411.395 239.109C290.758 219.321 196.478 181.858 200.814 155.434C202.824 143.174 226.243 134.906 266.236 132.336C268.755 125.319 271.751 118.484 275.204 111.877V111.877Z" fill="#CAB684" fill-opacity="0.399099"/>
<path d="M275.204 111.877C151.115 104.738 69.1336 119.053 64.2722 148.71C57.2775 191.349 209.413 251.8 404.076 283.731C598.739 315.661 762.214 306.98 769.208 264.34C774.075 234.684 700.963 194.929 581.095 162.052C581.844 166.798 582.382 171.574 582.709 176.367C651.188 198.958 689.944 223.592 686.831 242.55C681.493 275.063 556.839 281.682 408.405 257.334C259.971 232.987 143.964 186.892 149.292 154.378C152.399 135.419 196.994 124.457 269.102 124.926C270.943 120.489 272.978 116.135 275.204 111.877Z" fill="#BBA87A" fill-opacity="0.436014"/>
<path d="M514.384 134.845C513.827 134.871 513.281 135.012 512.78 135.257C512.279 135.503 511.834 135.848 511.472 136.273C511.123 136.681 510.859 137.155 510.693 137.666C510.528 138.177 510.464 138.715 510.507 139.251C510.55 139.786 510.698 140.308 510.943 140.786C511.187 141.265 511.524 141.69 511.933 142.038C518.917 148.008 528.156 151.184 537.705 151.02C547.255 150.856 556.379 147.365 563.155 141.159C563.551 140.796 563.872 140.359 564.099 139.872C564.326 139.386 564.455 138.859 564.479 138.322C564.502 137.786 564.42 137.25 564.236 136.745C564.052 136.24 563.771 135.777 563.408 135.381C562.676 134.584 561.657 134.109 560.576 134.062C559.495 134.015 558.439 134.398 557.64 135.128C552.449 139.883 545.199 142.714 537.565 142.845C529.931 142.976 522.589 140.395 517.238 135.822C516.446 135.144 515.425 134.795 514.385 134.845L514.384 134.845Z" fill="#1A1A1A"/>
<path d="M424.46 136.57C423.903 136.597 423.357 136.737 422.856 136.983C422.355 137.228 421.91 137.574 421.547 137.998C421.198 138.406 420.933 138.879 420.766 139.39C420.6 139.9 420.536 140.439 420.578 140.974C420.62 141.51 420.767 142.032 421.01 142.51C421.254 142.989 421.59 143.415 421.998 143.764C428.983 149.733 438.221 152.91 447.771 152.746C457.32 152.582 466.455 149.09 473.23 142.884C473.626 142.522 473.947 142.084 474.174 141.598C474.401 141.111 474.53 140.584 474.554 140.048C474.577 139.511 474.495 138.975 474.311 138.47C474.127 137.966 473.846 137.502 473.483 137.106C473.12 136.71 472.683 136.389 472.196 136.162C471.71 135.935 471.183 135.806 470.646 135.782C470.11 135.759 469.574 135.841 469.069 136.025C468.564 136.209 468.101 136.491 467.705 136.854C462.514 141.608 455.265 144.44 447.631 144.571C439.996 144.702 432.654 142.121 427.303 137.547C426.514 136.872 425.497 136.523 424.46 136.57L424.46 136.57Z" fill="#1A1A1A"/>
<path d="M461.779 195.119C460.506 197.632 462.37 200.231 464.032 201.968C471.746 210.03 479.201 213.98 495.34 213.819C511.479 213.657 518.789 209.222 526.223 200.9C527.824 199.108 529.597 196.446 528.239 193.978C526.884 191.51 523.877 191.916 521.338 193.134C514.259 196.528 509.809 200.439 494.929 200.694C479.482 200.959 475.133 196.82 468.647 194.038C466.074 192.934 462.981 192.858 461.779 195.119Z" fill="#1A1A1A"/>
</svg>
