<svg width="1002" height="1078" viewBox="0 0 1002 1078" fill="none" xmlns="http://www.w3.org/2000/svg">
<path d="M255.395 669.969C308.303 805.614 461.156 872.685 596.8 819.777C732.445 766.868 799.516 614.016 746.607 478.372C693.699 342.727 540.847 275.656 405.202 328.564C269.558 381.473 202.487 534.325 255.395 669.969Z" fill="#89E0E5"/>
<path d="M534.509 312.678C494.316 243.062 453.224 187.717 415.65 152.594C378.075 117.471 345.44 103.898 321.253 113.334C285.96 127.1 271.05 188.854 279.804 285.011C288.557 381.168 320.257 503.851 367.929 626.072C391.534 686.59 418.35 745.173 446.846 798.475C475.342 851.778 504.96 898.757 534.008 936.729C563.056 974.702 590.965 1002.93 616.143 1019.79C641.321 1036.65 663.275 1041.82 680.75 1035C704.937 1025.57 719.763 993.48 723.632 942.192C727.501 890.904 720.267 822.355 702.709 743.913C701.155 745.758 699.577 747.582 697.973 749.384C713.536 820.831 719.928 882.755 716.503 928.891C713.077 975.027 699.955 1003.74 678.465 1012.12C662.442 1018.37 642.136 1013.17 618.704 996.824C595.272 980.476 569.174 953.298 541.9 916.841C514.626 880.384 486.712 835.361 459.749 784.345C432.785 733.329 407.301 677.318 384.753 619.51C362.205 561.702 343.034 503.229 328.334 447.43C313.634 391.631 303.693 339.598 299.079 294.302C294.465 249.007 295.268 211.336 301.442 183.44C307.617 155.544 319.042 137.97 335.065 131.72C356.554 123.337 385.65 135.582 419.409 167.214C453.168 198.846 490.393 248.743 527.316 311.859C529.717 312.099 532.115 312.372 534.509 312.678V312.678Z" fill="white" fill-opacity="0.0954732"/>
<path d="M517.321 311.049C483.684 255.603 450.133 212.205 419.791 184.897C389.449 157.589 363.304 147.259 343.791 154.87C313.127 166.832 300.862 222.253 309.693 308.941C318.523 395.63 347.727 506.486 390.88 617.122C434.033 727.758 487.602 829.111 539.8 898.885C591.998 968.659 638.549 1001.14 669.215 989.18C688.727 981.568 700.973 956.264 704.811 915.624C708.649 874.983 703.956 820.328 691.167 756.75C664.659 784.359 632.458 805.865 596.801 819.774C589.679 822.551 582.439 825.018 575.103 827.166C530.181 762.687 487.541 680.661 453.267 592.788C418.991 504.914 394.831 415.681 384.232 337.815C391.085 334.428 398.082 331.341 405.204 328.563C440.862 314.655 479.12 308.679 517.321 311.049V311.049Z" fill="#666666" fill-opacity="0.0620775"/>
<path d="M344.898 361.724C462.227 275.512 627.23 300.736 713.443 418.065C799.656 535.394 774.431 700.397 657.102 786.61C539.773 872.823 374.77 847.598 288.557 730.269C202.345 612.94 227.569 447.937 344.898 361.724Z" fill="url(#paint0_radial_6_3164)"/>
<path d="M586.553 622.729C570.653 616.814 554.712 603.146 548.406 586.959C542.165 570.82 544.158 549.869 552.785 534.534C554.414 532.165 553.696 531.084 551.173 531.163C547.145 531.295 544.698 532.275 540.995 533.694C518.903 542.245 497.64 570.781 510.311 600.158C522.981 629.535 556.785 639.849 578.868 631.278C582.547 629.843 585.064 628.861 588.122 626.272C590.402 624.44 588.96 622.834 586.55 622.73L586.553 622.729Z" fill="#1A1A1A"/>
<path d="M633.623 618.103C637.341 627.682 648.12 632.434 657.699 628.716C667.279 624.998 672.031 614.219 668.313 604.64C664.595 595.06 653.815 590.309 644.236 594.027C634.657 597.744 629.905 608.524 633.623 618.103Z" fill="#1A1A1A"/>
<path d="M590.303 506.477C594.02 516.056 604.8 520.808 614.379 517.09C623.958 513.372 628.71 502.593 624.992 493.013C621.275 483.434 610.495 478.683 600.916 482.401C591.337 486.118 586.585 496.898 590.303 506.477Z" fill="#1A1A1A"/>
<defs>
<radialGradient id="paint0_radial_6_3164" cx="0" cy="0" r="1" gradientUnits="userSpaceOnUse" gradientTransform="translate(647.768 468.903) rotate(-36.3083) scale(274.409 572.685)">
<stop stop-color="#666666" stop-opacity="0"/>
<stop offset="1" stop-color="#343434" stop-opacity="0.294267"/>
</radialGradient>
</defs>
</svg>
