<svg width="596" height="596" viewBox="0 0 596 596" fill="none" xmlns="http://www.w3.org/2000/svg">
<path d="M533.025 360.975C498.245 490.776 364.826 567.805 235.025 533.025C105.225 498.245 28.1947 364.826 62.9748 235.025C97.7548 105.224 231.174 28.1948 360.975 62.9749C490.776 97.7549 567.805 231.174 533.025 360.975V360.975Z" fill="#D1B886"/>
<path d="M531.702 365.713C531.596 366.041 531.494 366.368 531.388 366.695C531.494 366.368 531.596 366.04 531.702 365.713ZM528.12 377.036C527.98 377.442 527.839 377.847 527.699 378.252C527.839 377.847 527.98 377.441 528.12 377.036ZM527.139 379.838C527.008 380.202 526.877 380.565 526.742 380.929C526.872 380.565 527.008 380.202 527.139 379.838ZM55.6913 275.904C55.5993 276.889 55.5169 277.876 55.4395 278.863C55.5169 277.876 55.5993 276.889 55.6913 275.904ZM55.4395 278.863C55.362 279.85 55.2897 280.837 55.2219 281.825C55.2897 280.837 55.362 279.85 55.4395 278.863ZM54.843 289.239C54.7946 290.384 54.7655 291.529 54.7413 292.674C54.7897 291.529 54.7994 290.384 54.843 289.239ZM54.7413 292.674C54.2517 315.03 56.8457 337.347 62.4511 358.995C125.481 392.196 192.02 418.257 260.833 436.696C329.645 455.134 400.301 465.833 471.488 468.596C487.168 452.651 500.574 434.62 511.329 415.014C431.626 414.029 352.357 403.095 275.364 382.465C198.371 361.835 124.258 331.672 54.7413 292.674V292.674Z" fill="#E2C894" fill-opacity="0.935474"/>
<path d="M58.3341 256.031C56.2139 268.137 55.0142 280.387 54.744 292.674C124.26 331.672 198.374 361.836 275.366 382.465C352.36 403.096 431.628 414.029 511.332 415.014C517.24 404.238 522.325 393.03 526.541 381.487C444.754 381.007 363.366 370.048 284.365 348.88C205.365 327.712 129.403 296.508 58.3341 256.031V256.031Z" fill="#D1B886"/>
<path d="M100.385 439.954C104.996 446.371 109.916 452.56 115.129 458.498C156.704 476.242 199.483 491.019 243.146 502.718C286.81 514.418 331.247 523.011 376.126 528.432C383.608 525.895 390.962 522.995 398.162 519.743C346.788 514.583 295.915 505.276 246.041 491.913C196.167 478.549 147.457 461.173 100.385 439.954Z" fill="#B59B68"/>
<path d="M360.376 62.8144C230.72 28.4276 97.6924 105.458 62.9756 235.026C61.1189 241.955 59.5689 248.963 58.3315 256.029C129.401 296.506 205.364 327.71 284.365 348.878C363.367 370.047 444.756 381.005 526.543 381.485C529.005 374.747 531.167 367.904 533.023 360.975C567.804 231.174 490.774 97.7545 360.973 62.9745C360.774 62.9207 360.576 62.8674 360.376 62.8141V62.8144Z" fill="#B59B68"/>
<path d="M540.635 289.431C463.693 287.821 386.911 263.522 312.574 243.605C238.239 223.686 166.577 194.877 99.1382 157.802C90.4751 170.088 82.9697 183.151 76.7159 196.822C90.3665 204.549 110.763 222.975 126.967 231.038C156.253 245.609 192.89 252.93 227.043 265.117C306.261 293.385 302.715 293.218 338.263 303.141C380.577 314.952 487.35 340.334 537.766 339.401C542.327 311.402 541.992 304.402 540.633 289.43L540.635 289.431Z" fill="#E2C894" fill-opacity="0.935474"/>
<path d="M115.702 136.851C109.802 143.526 104.272 150.521 99.1379 157.802C166.576 194.878 238.239 223.687 312.574 243.605C386.91 263.523 464.508 293.863 541.45 295.473C540.792 271.815 538.224 258.321 536.451 249.59C463.169 247.223 390.4 236.444 319.577 217.468C248.756 198.491 180.35 171.441 115.702 136.851V136.851Z" fill="#D1B886"/>
<path d="M365.641 64.2754C366.385 64.4909 367.128 64.7097 367.87 64.932C367.128 64.7097 366.385 64.4909 365.641 64.2754ZM368.061 64.9884C368.483 65.1158 368.907 65.2441 369.329 65.3734C368.908 65.2441 368.484 65.1158 368.061 64.9884ZM372.71 66.4385C373 66.532 373.287 66.6259 373.575 66.7203C373.284 66.6259 372.998 66.532 372.71 66.4385ZM375.662 67.411C375.904 67.4933 376.15 67.576 376.394 67.6588C376.151 67.576 375.906 67.4933 375.662 67.411ZM378.167 68.2714C378.511 68.391 378.855 68.5111 379.197 68.6321C378.854 68.5111 378.511 68.391 378.167 68.2714ZM386.679 71.42C386.965 71.5323 387.252 71.6457 387.539 71.759C387.253 71.6457 386.966 71.5323 386.679 71.42ZM331.281 56.9702C330.3 56.8351 329.319 56.7062 328.337 56.5832C329.319 56.7062 330.3 56.8351 331.281 56.9702ZM391.936 73.5489C392.304 73.7024 392.668 73.8569 393.034 74.0119C392.666 73.8569 392.302 73.7024 391.936 73.5489ZM394.71 74.7301C395.058 74.8817 395.411 75.0343 395.761 75.1878C395.412 75.0343 395.06 74.8817 394.71 74.7301ZM325.387 56.2306C324.404 56.1192 323.421 56.0136 322.436 55.9138C323.421 56.0136 324.404 56.1192 325.387 56.2306ZM398.584 76.4471C398.996 76.635 399.411 76.8244 399.823 77.0149C399.412 76.8246 398.998 76.6352 398.584 76.4471ZM320.96 55.7695C319.974 55.6765 318.988 55.5894 318.001 55.508C318.988 55.5894 319.974 55.6765 320.96 55.7695ZM315.04 55.2819C314.053 55.2127 313.066 55.1492 312.078 55.0916C313.066 55.1492 314.053 55.2127 315.04 55.2819ZM409.166 81.5651C409.607 81.7913 410.047 82.0189 410.486 82.2478C410.046 82.0187 409.607 81.7916 409.166 81.5651ZM410.486 82.2478C410.922 82.4744 411.356 82.7025 411.79 82.9317C411.354 82.7027 410.922 82.4746 410.486 82.2478ZM414.481 84.3777C414.892 84.6034 415.305 84.83 415.717 85.0581C415.305 84.83 414.893 84.6034 414.481 84.3777ZM415.717 85.0581C416.153 85.2973 416.583 85.5375 417.014 85.779C416.583 85.5374 416.15 85.2972 415.717 85.0581ZM303.174 54.7388C302.186 54.7194 301.196 54.7049 300.207 54.6952C301.196 54.7049 302.186 54.7194 303.174 54.7388ZM295.75 54.6952C294.761 54.7049 293.771 54.7195 292.782 54.7437C293.771 54.7195 294.761 54.7049 295.75 54.6952ZM288.33 54.8783C287.341 54.917 286.352 54.9625 285.364 55.0134C286.352 54.962 287.341 54.917 288.33 54.8783ZM429.733 93.4329C430.149 93.7012 430.565 93.9706 430.98 94.2413C430.564 93.9706 430.149 93.7011 429.733 93.4329ZM432.426 95.1904C432.77 95.419 433.113 95.6486 433.456 95.8789C433.112 95.6484 432.77 95.4188 432.426 95.1904ZM435.913 97.5473C436.662 98.0616 437.408 98.58 438.15 99.1026C437.408 98.58 436.662 98.0616 435.913 97.5473ZM273.523 55.9184C272.538 56.0182 271.553 56.1239 270.569 56.2357C271.553 56.1239 272.538 56.0182 273.523 55.9184ZM441.09 101.206C441.38 101.419 441.673 101.633 441.964 101.847C441.674 101.633 441.382 101.419 441.09 101.206ZM443.157 102.729C443.555 103.024 443.951 103.32 444.347 103.618C443.95 103.32 443.555 103.024 443.157 102.729ZM445.916 104.811C446.183 105.013 446.445 105.216 446.709 105.42C446.448 105.216 446.181 105.013 445.916 104.811ZM263.206 57.1854C261.736 57.398 260.269 57.6241 258.804 57.8635C260.269 57.6237 261.736 57.3981 263.206 57.1854ZM254.414 58.62C253.441 58.7977 252.468 58.9808 251.497 59.1702C252.468 58.9808 253.441 58.7973 254.414 58.62ZM457.056 113.874C457.429 114.197 457.803 114.522 458.176 114.848C457.803 114.522 457.43 114.197 457.056 113.874ZM459.352 115.883C459.701 116.193 460.052 116.504 460.4 116.817C460.051 116.504 459.702 116.193 459.352 115.883ZM248.587 59.7554C247.618 59.9564 246.649 60.1631 245.682 60.376C246.649 60.1634 247.618 59.9562 248.587 59.7554ZM464.076 120.18C464.309 120.397 464.541 120.615 464.773 120.833C464.54 120.615 464.308 120.397 464.076 120.18ZM237.019 62.4515C235.581 62.8234 234.148 63.2088 232.717 63.6072C234.148 63.2087 235.581 62.8236 237.019 62.4515ZM469.263 125.168C469.894 125.794 470.522 126.423 471.147 127.056C470.522 126.423 469.894 125.794 469.263 125.168ZM472.234 128.161C472.563 128.5 472.892 128.84 473.22 129.181C472.89 128.84 472.563 128.5 472.234 128.161ZM225.596 65.7068C224.651 66.0013 223.708 66.3012 222.767 66.607C223.708 66.3014 224.651 66.0011 225.596 65.7068ZM219.949 67.5437C219.011 67.8609 218.076 68.1835 217.142 68.512C218.076 68.1836 219.011 67.8607 219.949 67.5437ZM481.491 138.209C481.737 138.49 481.979 138.773 482.222 139.055C481.98 138.772 481.735 138.49 481.491 138.209ZM484.148 141.315C484.467 141.694 484.785 142.073 485.102 142.454C484.787 142.073 484.467 141.694 484.148 141.315ZM214.348 69.5169C213.419 69.8569 212.492 70.2029 211.567 70.5544C212.492 70.2028 213.419 69.8571 214.348 69.5169ZM486.047 143.598C486.361 143.981 486.673 144.364 486.985 144.749C486.675 144.364 486.36 143.981 486.047 143.598ZM486.985 144.749C487.295 145.133 487.608 145.519 487.918 145.906C487.608 145.519 487.297 145.133 486.985 144.749ZM208.796 71.6253C207.876 71.9885 206.957 72.3578 206.042 72.7323C206.957 72.3575 207.876 71.9887 208.796 71.6253ZM489.181 147.495C489.375 147.741 489.568 147.987 489.758 148.233C489.565 147.987 489.376 147.741 489.181 147.495ZM489.758 148.233C490.063 148.623 490.367 149.015 490.669 149.407C490.369 149.015 490.063 148.623 489.758 148.233ZM493.409 153.027C493.685 153.402 493.964 153.778 494.239 154.154C493.963 153.778 493.687 153.402 493.409 153.027ZM200.57 75.0434C199.663 75.4396 198.759 75.8415 197.856 76.2488C198.759 75.8415 199.663 75.4397 200.57 75.0434ZM496.839 157.77C497.124 158.175 497.408 158.58 497.691 158.986C497.41 158.58 497.124 158.175 496.839 157.77ZM497.691 158.986C497.972 159.392 498.255 159.799 498.535 160.207C498.254 159.799 497.974 159.392 497.691 158.986ZM193.813 78.1189C192.919 78.5431 192.027 78.9727 191.139 79.4077C192.027 78.9729 192.919 78.543 193.813 78.1189ZM189.806 80.0636C188.919 80.5038 188.035 80.949 187.154 81.3998C188.035 80.9489 188.919 80.5036 189.806 80.0636ZM503.603 167.892C503.816 168.226 504.024 168.56 504.236 168.895C504.027 168.56 503.814 168.226 503.603 167.892ZM504.236 168.895C504.497 169.315 504.759 169.736 505.019 170.157C504.758 169.736 504.498 169.315 504.236 168.895ZM505.797 171.423C506.569 172.69 507.329 173.965 508.078 175.246C507.329 173.965 506.569 172.69 505.797 171.423ZM508.078 175.246C508.33 175.674 508.577 176.103 508.825 176.532C508.578 176.103 508.328 175.674 508.078 175.246ZM175.431 87.8108C175.004 88.0597 174.578 88.3099 174.152 88.5614C174.578 88.3101 175.005 88.06 175.433 87.8114L175.431 87.8108V87.8108ZM509.62 177.924C509.843 178.32 510.07 178.717 510.291 179.114C510.068 178.717 509.845 178.32 509.62 177.924ZM174.151 88.5638C173.3 89.067 172.45 89.5755 171.605 90.0891C172.45 89.5755 173.3 89.067 174.151 88.5638ZM171.605 90.0891C170.336 90.8604 169.074 91.6433 167.82 92.4377C169.074 91.6433 170.336 90.8604 171.605 90.0891ZM167.82 92.4377C165.73 93.7618 163.66 95.1176 161.611 96.5048C163.66 95.1176 165.73 93.7618 167.82 92.4377ZM161.611 96.5048C159.971 97.6143 158.345 98.7436 156.734 99.8927C158.345 98.7436 159.971 97.6143 161.611 96.5048ZM511.014 180.412C511.731 181.711 512.436 183.018 513.129 184.331C512.436 183.018 511.731 181.711 511.014 180.412ZM513.129 184.331C513.362 184.768 513.589 185.206 513.819 185.645C513.591 185.207 513.359 184.768 513.129 184.331ZM517.272 192.54C517.447 192.899 517.616 193.26 517.788 193.621C517.618 193.26 517.444 192.9 517.272 192.54ZM518.439 195.008C518.643 195.441 518.841 195.875 519.044 196.31C518.845 195.876 518.642 195.441 518.439 195.008ZM155.527 100.761C154.725 101.34 153.926 101.924 153.131 102.513C153.926 101.924 154.725 101.34 155.527 100.761ZM153.131 102.513C152.336 103.102 151.544 103.697 150.756 104.296C151.544 103.697 152.336 103.102 153.131 102.513ZM520.269 199.017C520.473 199.469 520.671 199.921 520.87 200.375C520.671 199.921 520.473 199.469 520.269 199.017ZM520.87 200.375C521.068 200.827 521.267 201.281 521.46 201.735C521.267 201.281 521.068 200.828 520.87 200.375ZM521.46 201.735C521.654 202.19 521.848 202.645 522.043 203.101C521.85 202.645 521.656 202.19 521.46 201.735ZM523.185 205.842C523.374 206.3 523.558 206.758 523.744 207.217C523.559 206.758 523.371 206.3 523.185 205.842ZM523.744 207.217C523.928 207.677 524.112 208.137 524.294 208.598C524.11 208.138 523.93 207.677 523.744 207.217ZM147.235 107.024C146.069 107.944 144.912 108.874 143.764 109.814C144.912 108.874 146.069 107.944 147.235 107.024ZM143.763 109.817C142.998 110.443 142.237 111.074 141.479 111.71C142.237 111.074 142.998 110.443 143.763 109.817ZM526.408 214.147C526.747 215.076 527.084 216.007 527.414 216.94C527.085 216.007 526.749 215.076 526.408 214.147ZM141.478 111.712C140.72 112.349 139.966 112.99 139.216 113.635C139.966 112.99 140.72 112.349 141.478 111.712ZM139.216 113.635C138.466 114.281 137.72 114.932 136.978 115.587C137.72 114.932 138.466 114.281 139.216 113.635ZM136.978 115.587C136.236 116.242 135.499 116.901 134.765 117.564C135.499 116.901 136.236 116.242 136.978 115.587ZM528.003 218.629C528.129 219.001 528.259 219.374 528.385 219.747C528.259 219.374 528.129 219.001 528.003 218.629ZM529.324 222.563C529.479 223.033 529.629 223.504 529.779 223.976C529.629 223.504 529.479 223.034 529.324 222.563ZM529.779 223.976C529.929 224.448 530.079 224.92 530.224 225.393C530.079 224.92 529.929 224.448 529.779 223.976ZM530.224 225.393C530.374 225.866 530.52 226.339 530.665 226.812C530.52 226.339 530.374 225.866 530.224 225.393ZM530.665 226.812C530.811 227.285 530.951 227.759 531.091 228.232C530.951 227.759 530.811 227.285 530.665 226.812ZM531.091 228.232C531.377 229.181 531.654 230.131 531.926 231.083C531.655 230.131 531.376 229.181 531.091 228.232ZM134.76 117.567C133.659 118.562 132.568 119.568 131.486 120.583C132.568 119.568 133.659 118.562 134.76 117.567ZM131.485 120.585C129.883 122.089 128.302 123.613 126.741 125.159C128.302 123.613 129.883 122.089 131.485 120.585ZM126.741 125.159C122.931 128.934 119.248 132.833 115.696 136.851C180.344 171.442 248.752 198.491 319.574 217.468C390.396 236.445 463.164 247.223 536.447 249.591C535.379 244.335 534.137 239.116 532.725 233.942C462.085 231.08 391.979 220.402 323.69 202.104C255.401 183.806 189.349 158.001 126.741 125.159V125.159ZM532.725 233.942C532.638 233.621 532.55 233.301 532.458 232.98C532.545 233.301 532.638 233.621 532.725 233.942Z" fill="#B59B68"/>
<path d="M360.378 62.8152C276.955 40.6902 188.056 64.4128 126.747 125.159C189.354 158 255.407 183.805 323.696 202.103C391.985 220.401 462.091 231.079 532.731 233.942C509.951 150.467 444.553 85.3705 360.975 62.9751C360.776 62.9213 360.578 62.8686 360.378 62.8153V62.8152Z" fill="#D1B886"/>
<path d="M174.217 88.5227C170.982 90.4353 167.793 92.4226 164.651 94.483C219.428 121.113 276.621 142.455 335.453 158.219C394.286 173.984 454.491 184.098 515.246 188.425C513.553 185.069 511.782 181.754 509.935 178.481C451.828 173.865 394.264 163.951 337.96 148.865C281.656 133.777 226.847 113.579 174.217 88.5227V88.5227Z" fill="#D8BE8A"/>
<path d="M209.073 71.5189C206.964 72.3474 204.867 73.2053 202.782 74.0923C248.645 94.5211 296.044 111.311 344.541 124.305C393.038 137.299 442.482 146.458 492.416 151.697C491.054 149.887 489.667 148.096 488.254 146.325C440.168 141.001 392.554 132.04 345.823 119.519C299.092 106.997 253.378 90.9511 209.073 71.5189V71.5189Z" fill="#E2C894" fill-opacity="0.935474"/>
<path d="M238.753 62.0078C236.044 62.6882 233.348 63.4151 230.665 64.1883C269.447 80.2803 309.245 93.8036 349.802 104.671C390.358 115.538 431.586 123.725 473.218 129.18C471.28 127.17 469.307 125.193 467.301 123.25C428.128 117.813 389.33 109.954 351.129 99.7177C312.927 89.4809 275.396 76.8868 238.753 62.0078V62.0078Z" fill="#E2C894" fill-opacity="0.935474"/>
<path d="M383.405 291.85C411.818 299.463 430.586 314.626 430.586 314.626C430.586 314.626 414.709 315.654 403.219 310.051C397.819 307.418 388.153 301.076 383.405 291.85Z" fill="#C4AC7E"/>
<path d="M113.573 203.8C125.378 210.535 153.727 226.464 182.132 239.068C194.772 244.676 217.15 251.593 238.507 260.298C267.591 272.152 295.889 285.882 305.358 290.832C310.116 293.32 314.991 295.654 319.776 297.81C323.7 298.995 328.181 300.292 333.286 301.733C321.969 296.771 309.093 290.989 298.45 285.816C287.679 280.58 268.932 271.477 238.939 259.443C200.831 244.153 194.474 243.309 182.771 237.724C145.5 219.934 113.573 203.8 113.573 203.8V203.8Z" fill="#C4AC7E"/>
<path d="M317.954 240.097C326.181 244.847 336.702 242.028 341.452 233.8C346.202 225.573 343.383 215.053 335.156 210.302C326.928 205.552 316.408 208.371 311.658 216.599C306.908 224.826 309.727 235.347 317.954 240.097Z" fill="#322F28"/>
<path d="M412.679 265.479C420.907 270.229 431.427 267.41 436.177 259.182C440.927 250.955 438.109 240.435 429.881 235.685C421.654 230.934 411.133 233.753 406.383 241.981C401.633 250.208 404.452 260.729 412.679 265.479Z" fill="#322F28"/>
<path d="M416.352 325.903C394.845 338.349 372.486 342.344 351.52 337.402C330.554 332.459 310.542 318.509 293.989 293.458L284.868 298.329C302.586 325.144 325.104 341.303 349.317 347.01C373.53 352.718 399 347.905 422.371 334.38L416.352 325.903Z" fill="#322F28"/>
<path d="M421.098 316.464L410.405 314.869C409.045 325.705 411.872 334.081 415.192 339.621C418.513 345.162 422.651 348.224 422.651 348.224L429.043 340.527C429.043 340.527 426.9 339.046 424.557 335.138C422.215 331.23 419.995 325.25 421.098 316.464Z" fill="#322F28"/>
<path d="M293.23 281.522C288.925 290.529 284.018 294.868 280.439 297.058C276.86 299.247 275.193 299.244 275.193 299.244L276.632 309.133C276.632 309.133 281.449 308.604 286.675 305.408C291.901 302.211 298.126 296.306 303.111 285.878L293.23 281.522Z" fill="#322F28"/>
<path d="M260.28 232.381C258.71 232.839 257.193 233.463 255.755 234.241L277.819 234.24C276.382 233.463 274.866 232.839 273.298 232.38L260.28 232.381ZM251.671 237.053C250.992 237.636 250.347 238.258 249.74 238.915L283.831 238.915C283.224 238.257 282.58 237.636 281.902 237.053L251.671 237.053ZM247.52 241.735C247.118 242.335 246.745 242.953 246.401 243.587L287.172 243.587C286.828 242.953 286.455 242.335 286.054 241.735L247.52 241.735ZM245.108 246.41C244.878 247.018 244.672 247.636 244.493 248.262L289.081 248.262C288.902 247.636 288.696 247.018 288.465 246.41L245.108 246.41ZM243.857 251.08C243.762 251.694 243.692 252.312 243.647 252.932L289.895 252.932C289.85 252.312 289.779 251.694 289.684 251.08L243.857 251.08ZM243.615 255.754C243.645 256.376 243.699 256.997 243.779 257.614L289.767 257.614C289.846 256.997 289.901 256.376 289.93 255.754L243.615 255.754ZM244.323 260.427C244.485 261.055 244.674 261.676 244.888 262.289L288.656 262.289C288.872 261.676 289.062 261.055 289.226 260.427L244.323 260.427ZM246.087 265.101C246.408 265.737 246.758 266.358 247.137 266.961L286.407 266.961C286.786 266.358 287.136 265.737 287.458 265.101L246.087 265.101ZM249.217 269.775C249.78 270.428 250.379 271.049 251.011 271.636L282.531 271.636C283.164 271.049 283.764 270.428 284.327 269.775L249.217 269.775ZM254.743 274.45C255.955 275.185 257.231 275.808 258.556 276.31L274.992 276.31C276.316 275.808 277.592 275.185 278.803 274.45L254.743 274.45Z" fill="#FF5555"/>
<path d="M452.522 283.892C450.952 284.35 449.435 284.974 447.997 285.752L470.062 285.752C468.625 284.974 467.109 284.351 465.541 283.892L452.522 283.892ZM443.914 288.564C443.235 289.147 442.59 289.769 441.983 290.426L476.074 290.426C475.467 289.769 474.823 289.147 474.145 288.564L443.914 288.564ZM439.762 293.247C439.361 293.846 438.988 294.464 438.644 295.099L479.415 295.099C479.072 294.464 478.699 293.846 478.297 293.247L439.762 293.247ZM437.351 297.921C437.12 298.529 436.915 299.147 436.736 299.773L481.324 299.773C481.144 299.147 480.939 298.529 480.708 297.921L437.351 297.921ZM436.1 302.591C436.005 303.205 435.935 303.823 435.89 304.443L482.137 304.443C482.092 303.823 482.022 303.206 481.927 302.591L436.1 302.591ZM435.858 307.265C435.887 307.887 435.942 308.508 436.022 309.126L482.01 309.126C482.089 308.508 482.144 307.887 482.173 307.265L435.858 307.265ZM436.566 311.938C436.728 312.566 436.917 313.187 437.131 313.8L480.899 313.8C481.115 313.188 481.305 312.567 481.468 311.938L436.566 311.938ZM438.329 316.612C438.651 317.248 439.002 317.869 439.38 318.472L478.65 318.472C479.029 317.869 479.379 317.248 479.701 316.612L438.329 316.612ZM441.46 321.287C442.023 321.94 442.622 322.56 443.253 323.147L474.774 323.147C475.407 322.561 476.006 321.94 476.57 321.287L441.46 321.287ZM446.986 325.961C448.197 326.696 449.474 327.319 450.799 327.821L467.235 327.821C468.56 327.319 469.835 326.696 471.046 325.961L446.986 325.961Z" fill="#FF5555"/>
<path d="M533.025 360.975C498.245 490.776 364.826 567.805 235.025 533.025C105.225 498.245 28.1947 364.826 62.9748 235.025C97.7548 105.224 231.174 28.1948 360.975 62.9749C490.776 97.7549 567.805 231.174 533.025 360.975V360.975Z" fill="#D1B886"/>
<path d="M531.702 365.713C531.596 366.041 531.494 366.368 531.388 366.695C531.494 366.368 531.596 366.04 531.702 365.713ZM528.12 377.036C527.98 377.442 527.839 377.847 527.699 378.252C527.839 377.847 527.98 377.441 528.12 377.036ZM527.139 379.838C527.008 380.202 526.877 380.565 526.742 380.929C526.872 380.565 527.008 380.202 527.139 379.838ZM55.6913 275.904C55.5993 276.889 55.5169 277.876 55.4395 278.863C55.5169 277.876 55.5993 276.889 55.6913 275.904ZM55.4395 278.863C55.362 279.85 55.2897 280.837 55.2219 281.825C55.2897 280.837 55.362 279.85 55.4395 278.863ZM54.843 289.239C54.7946 290.384 54.7655 291.529 54.7413 292.674C54.7897 291.529 54.7994 290.384 54.843 289.239ZM54.7413 292.674C54.2517 315.03 56.8457 337.347 62.4511 358.995C125.481 392.196 192.02 418.257 260.833 436.696C329.645 455.134 400.301 465.833 471.488 468.596C487.168 452.651 500.574 434.62 511.329 415.014C431.626 414.029 352.357 403.095 275.364 382.465C198.371 361.835 124.258 331.672 54.7413 292.674V292.674Z" fill="#E2C894" fill-opacity="0.935474"/>
<path d="M58.3341 256.031C56.2139 268.137 55.0142 280.387 54.744 292.674C124.26 331.672 198.374 361.836 275.366 382.465C352.36 403.096 431.628 414.029 511.332 415.014C517.24 404.238 522.325 393.03 526.541 381.487C444.754 381.007 363.366 370.048 284.365 348.88C205.365 327.712 129.403 296.508 58.3341 256.031V256.031Z" fill="#D1B886"/>
<path d="M100.385 439.954C104.996 446.371 109.916 452.56 115.129 458.498C156.704 476.242 199.483 491.019 243.146 502.718C286.81 514.418 331.247 523.011 376.126 528.432C383.608 525.895 390.962 522.995 398.162 519.743C346.788 514.583 295.915 505.276 246.041 491.913C196.167 478.549 147.457 461.173 100.385 439.954Z" fill="#B59B68"/>
<path d="M360.376 62.8144C230.72 28.4276 97.6924 105.458 62.9756 235.026C61.1189 241.955 59.5689 248.963 58.3315 256.029C129.401 296.506 205.364 327.71 284.365 348.878C363.367 370.047 444.756 381.005 526.543 381.485C529.005 374.747 531.167 367.904 533.023 360.975C567.804 231.174 490.774 97.7545 360.973 62.9745C360.774 62.9207 360.576 62.8674 360.376 62.8141V62.8144Z" fill="#B59B68"/>
<path d="M540.635 289.431C463.693 287.821 386.911 263.522 312.574 243.605C238.239 223.686 166.577 194.877 99.1382 157.802C90.4751 170.088 82.9697 183.151 76.7159 196.822C90.3665 204.549 110.763 222.975 126.967 231.038C156.253 245.609 192.89 252.93 227.043 265.117C306.261 293.385 302.715 293.218 338.263 303.141C380.577 314.952 487.35 340.334 537.766 339.401C542.327 311.402 541.992 304.402 540.633 289.43L540.635 289.431Z" fill="#E2C894" fill-opacity="0.935474"/>
<path d="M115.702 136.851C109.802 143.526 104.272 150.521 99.1379 157.802C166.576 194.878 238.239 223.687 312.574 243.605C386.91 263.523 464.508 293.863 541.45 295.473C540.792 271.815 538.224 258.321 536.451 249.59C463.169 247.223 390.4 236.444 319.577 217.468C248.756 198.491 180.35 171.441 115.702 136.851V136.851Z" fill="#D1B886"/>
<path d="M365.641 64.2754C366.385 64.4909 367.128 64.7097 367.87 64.932C367.128 64.7097 366.385 64.4909 365.641 64.2754ZM368.061 64.9884C368.483 65.1158 368.907 65.2441 369.329 65.3734C368.908 65.2441 368.484 65.1158 368.061 64.9884ZM372.71 66.4385C373 66.532 373.287 66.6259 373.575 66.7203C373.284 66.6259 372.998 66.532 372.71 66.4385ZM375.662 67.411C375.904 67.4933 376.15 67.576 376.394 67.6588C376.151 67.576 375.906 67.4933 375.662 67.411ZM378.167 68.2714C378.511 68.391 378.855 68.5111 379.197 68.6321C378.854 68.5111 378.511 68.391 378.167 68.2714ZM386.679 71.42C386.965 71.5323 387.252 71.6457 387.539 71.759C387.253 71.6457 386.966 71.5323 386.679 71.42ZM331.281 56.9702C330.3 56.8351 329.319 56.7062 328.337 56.5832C329.319 56.7062 330.3 56.8351 331.281 56.9702ZM391.936 73.5489C392.304 73.7024 392.668 73.8569 393.034 74.0119C392.666 73.8569 392.302 73.7024 391.936 73.5489ZM394.71 74.7301C395.058 74.8817 395.411 75.0343 395.761 75.1878C395.412 75.0343 395.06 74.8817 394.71 74.7301ZM325.387 56.2306C324.404 56.1192 323.421 56.0136 322.436 55.9138C323.421 56.0136 324.404 56.1192 325.387 56.2306ZM398.584 76.4471C398.996 76.635 399.411 76.8244 399.823 77.0149C399.412 76.8246 398.998 76.6352 398.584 76.4471ZM320.96 55.7695C319.974 55.6765 318.988 55.5894 318.001 55.508C318.988 55.5894 319.974 55.6765 320.96 55.7695ZM315.04 55.2819C314.053 55.2127 313.066 55.1492 312.078 55.0916C313.066 55.1492 314.053 55.2127 315.04 55.2819ZM409.166 81.5651C409.607 81.7913 410.047 82.0189 410.486 82.2478C410.046 82.0187 409.607 81.7916 409.166 81.5651ZM410.486 82.2478C410.922 82.4744 411.356 82.7025 411.79 82.9317C411.354 82.7027 410.922 82.4746 410.486 82.2478ZM414.481 84.3777C414.892 84.6034 415.305 84.83 415.717 85.0581C415.305 84.83 414.893 84.6034 414.481 84.3777ZM415.717 85.0581C416.153 85.2973 416.583 85.5375 417.014 85.779C416.583 85.5374 416.15 85.2972 415.717 85.0581ZM303.174 54.7388C302.186 54.7194 301.196 54.7049 300.207 54.6952C301.196 54.7049 302.186 54.7194 303.174 54.7388ZM295.75 54.6952C294.761 54.7049 293.771 54.7195 292.782 54.7437C293.771 54.7195 294.761 54.7049 295.75 54.6952ZM288.33 54.8783C287.341 54.917 286.352 54.9625 285.364 55.0134C286.352 54.962 287.341 54.917 288.33 54.8783ZM429.733 93.4329C430.149 93.7012 430.565 93.9706 430.98 94.2413C430.564 93.9706 430.149 93.7011 429.733 93.4329ZM432.426 95.1904C432.77 95.419 433.113 95.6486 433.456 95.8789C433.112 95.6484 432.77 95.4188 432.426 95.1904ZM435.913 97.5473C436.662 98.0616 437.408 98.58 438.15 99.1026C437.408 98.58 436.662 98.0616 435.913 97.5473ZM273.523 55.9184C272.538 56.0182 271.553 56.1239 270.569 56.2357C271.553 56.1239 272.538 56.0182 273.523 55.9184ZM441.09 101.206C441.38 101.419 441.673 101.633 441.964 101.847C441.674 101.633 441.382 101.419 441.09 101.206ZM443.157 102.729C443.555 103.024 443.951 103.32 444.347 103.618C443.95 103.32 443.555 103.024 443.157 102.729ZM445.916 104.811C446.183 105.013 446.445 105.216 446.709 105.42C446.448 105.216 446.181 105.013 445.916 104.811ZM263.206 57.1854C261.736 57.398 260.269 57.6241 258.804 57.8635C260.269 57.6237 261.736 57.3981 263.206 57.1854ZM254.414 58.62C253.441 58.7977 252.468 58.9808 251.497 59.1702C252.468 58.9808 253.441 58.7973 254.414 58.62ZM457.056 113.874C457.429 114.197 457.803 114.522 458.176 114.848C457.803 114.522 457.43 114.197 457.056 113.874ZM459.352 115.883C459.701 116.193 460.052 116.504 460.4 116.817C460.051 116.504 459.702 116.193 459.352 115.883ZM248.587 59.7554C247.618 59.9564 246.649 60.1631 245.682 60.376C246.649 60.1634 247.618 59.9562 248.587 59.7554ZM464.076 120.18C464.309 120.397 464.541 120.615 464.773 120.833C464.54 120.615 464.308 120.397 464.076 120.18ZM237.019 62.4515C235.581 62.8234 234.148 63.2088 232.717 63.6072C234.148 63.2087 235.581 62.8236 237.019 62.4515ZM469.263 125.168C469.894 125.794 470.522 126.423 471.147 127.056C470.522 126.423 469.894 125.794 469.263 125.168ZM472.234 128.161C472.563 128.5 472.892 128.84 473.22 129.181C472.89 128.84 472.563 128.5 472.234 128.161ZM225.596 65.7068C224.651 66.0013 223.708 66.3012 222.767 66.607C223.708 66.3014 224.651 66.0011 225.596 65.7068ZM219.949 67.5437C219.011 67.8609 218.076 68.1835 217.142 68.512C218.076 68.1836 219.011 67.8607 219.949 67.5437ZM481.491 138.209C481.737 138.49 481.979 138.773 482.222 139.055C481.98 138.772 481.735 138.49 481.491 138.209ZM484.148 141.315C484.467 141.694 484.785 142.073 485.102 142.454C484.787 142.073 484.467 141.694 484.148 141.315ZM214.348 69.5169C213.419 69.8569 212.492 70.2029 211.567 70.5544C212.492 70.2028 213.419 69.8571 214.348 69.5169ZM486.047 143.598C486.361 143.981 486.673 144.364 486.985 144.749C486.675 144.364 486.36 143.981 486.047 143.598ZM486.985 144.749C487.295 145.133 487.608 145.519 487.918 145.906C487.608 145.519 487.297 145.133 486.985 144.749ZM208.796 71.6253C207.876 71.9885 206.957 72.3578 206.042 72.7323C206.957 72.3575 207.876 71.9887 208.796 71.6253ZM489.181 147.495C489.375 147.741 489.568 147.987 489.758 148.233C489.565 147.987 489.376 147.741 489.181 147.495ZM489.758 148.233C490.063 148.623 490.367 149.015 490.669 149.407C490.369 149.015 490.063 148.623 489.758 148.233ZM493.409 153.027C493.685 153.402 493.964 153.778 494.239 154.154C493.963 153.778 493.687 153.402 493.409 153.027ZM200.57 75.0434C199.663 75.4396 198.759 75.8415 197.856 76.2488C198.759 75.8415 199.663 75.4397 200.57 75.0434ZM496.839 157.77C497.124 158.175 497.408 158.58 497.691 158.986C497.41 158.58 497.124 158.175 496.839 157.77ZM497.691 158.986C497.972 159.392 498.255 159.799 498.535 160.207C498.254 159.799 497.974 159.392 497.691 158.986ZM193.813 78.1189C192.919 78.5431 192.027 78.9727 191.139 79.4077C192.027 78.9729 192.919 78.543 193.813 78.1189ZM189.806 80.0636C188.919 80.5038 188.035 80.949 187.154 81.3998C188.035 80.9489 188.919 80.5036 189.806 80.0636ZM503.603 167.892C503.816 168.226 504.024 168.56 504.236 168.895C504.027 168.56 503.814 168.226 503.603 167.892ZM504.236 168.895C504.497 169.315 504.759 169.736 505.019 170.157C504.758 169.736 504.498 169.315 504.236 168.895ZM505.797 171.423C506.569 172.69 507.329 173.965 508.078 175.246C507.329 173.965 506.569 172.69 505.797 171.423ZM508.078 175.246C508.33 175.674 508.577 176.103 508.825 176.532C508.578 176.103 508.328 175.674 508.078 175.246ZM175.431 87.8108C175.004 88.0597 174.578 88.3099 174.152 88.5614C174.578 88.3101 175.005 88.06 175.433 87.8114L175.431 87.8108V87.8108ZM509.62 177.924C509.843 178.32 510.07 178.717 510.291 179.114C510.068 178.717 509.845 178.32 509.62 177.924ZM174.151 88.5638C173.3 89.067 172.45 89.5755 171.605 90.0891C172.45 89.5755 173.3 89.067 174.151 88.5638ZM171.605 90.0891C170.336 90.8604 169.074 91.6433 167.82 92.4377C169.074 91.6433 170.336 90.8604 171.605 90.0891ZM167.82 92.4377C165.73 93.7618 163.66 95.1176 161.611 96.5048C163.66 95.1176 165.73 93.7618 167.82 92.4377ZM161.611 96.5048C159.971 97.6143 158.345 98.7436 156.734 99.8927C158.345 98.7436 159.971 97.6143 161.611 96.5048ZM511.014 180.412C511.731 181.711 512.436 183.018 513.129 184.331C512.436 183.018 511.731 181.711 511.014 180.412ZM513.129 184.331C513.362 184.768 513.589 185.206 513.819 185.645C513.591 185.207 513.359 184.768 513.129 184.331ZM517.272 192.54C517.447 192.899 517.616 193.26 517.788 193.621C517.618 193.26 517.444 192.9 517.272 192.54ZM518.439 195.008C518.643 195.441 518.841 195.875 519.044 196.31C518.845 195.876 518.642 195.441 518.439 195.008ZM155.527 100.761C154.725 101.34 153.926 101.924 153.131 102.513C153.926 101.924 154.725 101.34 155.527 100.761ZM153.131 102.513C152.336 103.102 151.544 103.697 150.756 104.296C151.544 103.697 152.336 103.102 153.131 102.513ZM520.269 199.017C520.473 199.469 520.671 199.921 520.87 200.375C520.671 199.921 520.473 199.469 520.269 199.017ZM520.87 200.375C521.068 200.827 521.267 201.281 521.46 201.735C521.267 201.281 521.068 200.828 520.87 200.375ZM521.46 201.735C521.654 202.19 521.848 202.645 522.043 203.101C521.85 202.645 521.656 202.19 521.46 201.735ZM523.185 205.842C523.374 206.3 523.558 206.758 523.744 207.217C523.559 206.758 523.371 206.3 523.185 205.842ZM523.744 207.217C523.928 207.677 524.112 208.137 524.294 208.598C524.11 208.138 523.93 207.677 523.744 207.217ZM147.235 107.024C146.069 107.944 144.912 108.874 143.764 109.814C144.912 108.874 146.069 107.944 147.235 107.024ZM143.763 109.817C142.998 110.443 142.237 111.074 141.479 111.71C142.237 111.074 142.998 110.443 143.763 109.817ZM526.408 214.147C526.747 215.076 527.084 216.007 527.414 216.94C527.085 216.007 526.749 215.076 526.408 214.147ZM141.478 111.712C140.72 112.349 139.966 112.99 139.216 113.635C139.966 112.99 140.72 112.349 141.478 111.712ZM139.216 113.635C138.466 114.281 137.72 114.932 136.978 115.587C137.72 114.932 138.466 114.281 139.216 113.635ZM136.978 115.587C136.236 116.242 135.499 116.901 134.765 117.564C135.499 116.901 136.236 116.242 136.978 115.587ZM528.003 218.629C528.129 219.001 528.259 219.374 528.385 219.747C528.259 219.374 528.129 219.001 528.003 218.629ZM529.324 222.563C529.479 223.033 529.629 223.504 529.779 223.976C529.629 223.504 529.479 223.034 529.324 222.563ZM529.779 223.976C529.929 224.448 530.079 224.92 530.224 225.393C530.079 224.92 529.929 224.448 529.779 223.976ZM530.224 225.393C530.374 225.866 530.52 226.339 530.665 226.812C530.52 226.339 530.374 225.866 530.224 225.393ZM530.665 226.812C530.811 227.285 530.951 227.759 531.091 228.232C530.951 227.759 530.811 227.285 530.665 226.812ZM531.091 228.232C531.377 229.181 531.654 230.131 531.926 231.083C531.655 230.131 531.376 229.181 531.091 228.232ZM134.76 117.567C133.659 118.562 132.568 119.568 131.486 120.583C132.568 119.568 133.659 118.562 134.76 117.567ZM131.485 120.585C129.883 122.089 128.302 123.613 126.741 125.159C128.302 123.613 129.883 122.089 131.485 120.585ZM126.741 125.159C122.931 128.934 119.248 132.833 115.696 136.851C180.344 171.442 248.752 198.491 319.574 217.468C390.396 236.445 463.164 247.223 536.447 249.591C535.379 244.335 534.137 239.116 532.725 233.942C462.085 231.08 391.979 220.402 323.69 202.104C255.401 183.806 189.349 158.001 126.741 125.159V125.159ZM532.725 233.942C532.638 233.621 532.55 233.301 532.458 232.98C532.545 233.301 532.638 233.621 532.725 233.942Z" fill="#B59B68"/>
<path d="M360.378 62.8152C276.955 40.6902 188.056 64.4128 126.747 125.159C189.354 158 255.407 183.805 323.696 202.103C391.985 220.401 462.091 231.079 532.731 233.942C509.951 150.467 444.553 85.3705 360.975 62.9751C360.776 62.9213 360.578 62.8686 360.378 62.8153V62.8152Z" fill="#D1B886"/>
<path d="M174.217 88.5227C170.982 90.4353 167.793 92.4226 164.651 94.483C219.428 121.113 276.621 142.455 335.453 158.219C394.286 173.984 454.491 184.098 515.246 188.425C513.553 185.069 511.782 181.754 509.935 178.481C451.828 173.865 394.264 163.951 337.96 148.865C281.656 133.777 226.847 113.579 174.217 88.5227V88.5227Z" fill="#D8BE8A"/>
<path d="M209.073 71.5189C206.964 72.3474 204.867 73.2053 202.782 74.0923C248.645 94.5211 296.044 111.311 344.541 124.305C393.038 137.299 442.482 146.458 492.416 151.697C491.054 149.887 489.667 148.096 488.254 146.325C440.168 141.001 392.554 132.04 345.823 119.519C299.092 106.997 253.378 90.9511 209.073 71.5189V71.5189Z" fill="#E2C894" fill-opacity="0.935474"/>
<path d="M238.753 62.0078C236.044 62.6882 233.348 63.4151 230.665 64.1883C269.447 80.2803 309.245 93.8036 349.802 104.671C390.358 115.538 431.586 123.725 473.218 129.18C471.28 127.17 469.307 125.193 467.301 123.25C428.128 117.813 389.33 109.954 351.129 99.7177C312.927 89.4809 275.396 76.8868 238.753 62.0078V62.0078Z" fill="#E2C894" fill-opacity="0.935474"/>
<path d="M383.405 291.85C411.818 299.463 430.586 314.626 430.586 314.626C430.586 314.626 414.709 315.654 403.219 310.051C397.819 307.418 388.153 301.076 383.405 291.85Z" fill="#C4AC7E"/>
<path d="M113.573 203.8C125.378 210.535 153.727 226.464 182.132 239.068C194.772 244.676 217.15 251.593 238.507 260.298C267.591 272.152 295.889 285.882 305.358 290.832C310.116 293.32 314.991 295.654 319.776 297.81C323.7 298.995 328.181 300.292 333.286 301.733C321.969 296.771 309.093 290.989 298.45 285.816C287.679 280.58 268.932 271.477 238.939 259.443C200.831 244.153 194.474 243.309 182.771 237.724C145.5 219.934 113.573 203.8 113.573 203.8V203.8Z" fill="#C4AC7E"/>
<path d="M317.954 240.097C326.181 244.847 336.702 242.028 341.452 233.8C346.202 225.573 343.383 215.053 335.156 210.302C326.928 205.552 316.408 208.371 311.658 216.599C306.908 224.826 309.727 235.347 317.954 240.097Z" fill="#322F28"/>
<path d="M412.679 265.479C420.907 270.229 431.427 267.41 436.177 259.182C440.927 250.955 438.109 240.435 429.881 235.685C421.654 230.934 411.133 233.753 406.383 241.981C401.633 250.208 404.452 260.729 412.679 265.479Z" fill="#322F28"/>
<path d="M416.352 325.903C394.845 338.349 372.486 342.344 351.52 337.402C330.554 332.459 310.542 318.509 293.989 293.458L284.868 298.329C302.586 325.144 325.104 341.303 349.317 347.01C373.53 352.718 399 347.905 422.371 334.38L416.352 325.903Z" fill="#322F28"/>
<path d="M421.098 316.464L410.405 314.869C409.045 325.705 411.872 334.081 415.192 339.621C418.513 345.162 422.651 348.224 422.651 348.224L429.043 340.527C429.043 340.527 426.9 339.046 424.557 335.138C422.215 331.23 419.995 325.25 421.098 316.464Z" fill="#322F28"/>
<path d="M293.23 281.522C288.925 290.529 284.018 294.868 280.439 297.058C276.86 299.247 275.193 299.244 275.193 299.244L276.632 309.133C276.632 309.133 281.449 308.604 286.675 305.408C291.901 302.211 298.126 296.306 303.111 285.878L293.23 281.522Z" fill="#322F28"/>
<path d="M260.28 232.381C258.71 232.839 257.193 233.463 255.755 234.241L277.819 234.24C276.382 233.463 274.866 232.839 273.298 232.38L260.28 232.381ZM251.671 237.053C250.992 237.636 250.347 238.258 249.74 238.915L283.831 238.915C283.224 238.257 282.58 237.636 281.902 237.053L251.671 237.053ZM247.52 241.735C247.118 242.335 246.745 242.953 246.401 243.587L287.172 243.587C286.828 242.953 286.455 242.335 286.054 241.735L247.52 241.735ZM245.108 246.41C244.878 247.018 244.672 247.636 244.493 248.262L289.081 248.262C288.902 247.636 288.696 247.018 288.465 246.41L245.108 246.41ZM243.857 251.08C243.762 251.694 243.692 252.312 243.647 252.932L289.895 252.932C289.85 252.312 289.779 251.694 289.684 251.08L243.857 251.08ZM243.615 255.754C243.645 256.376 243.699 256.997 243.779 257.614L289.767 257.614C289.846 256.997 289.901 256.376 289.93 255.754L243.615 255.754ZM244.323 260.427C244.485 261.055 244.674 261.676 244.888 262.289L288.656 262.289C288.872 261.676 289.062 261.055 289.226 260.427L244.323 260.427ZM246.087 265.101C246.408 265.737 246.758 266.358 247.137 266.961L286.407 266.961C286.786 266.358 287.136 265.737 287.458 265.101L246.087 265.101ZM249.217 269.775C249.78 270.428 250.379 271.049 251.011 271.636L282.531 271.636C283.164 271.049 283.764 270.428 284.327 269.775L249.217 269.775ZM254.743 274.45C255.955 275.185 257.231 275.808 258.556 276.31L274.992 276.31C276.316 275.808 277.592 275.185 278.803 274.45L254.743 274.45Z" fill="#FF5555"/>
<path d="M452.522 283.892C450.952 284.35 449.435 284.974 447.997 285.752L470.062 285.752C468.625 284.974 467.109 284.351 465.541 283.892L452.522 283.892ZM443.914 288.564C443.235 289.147 442.59 289.769 441.983 290.426L476.074 290.426C475.467 289.769 474.823 289.147 474.145 288.564L443.914 288.564ZM439.762 293.247C439.361 293.846 438.988 294.464 438.644 295.099L479.415 295.099C479.072 294.464 478.699 293.846 478.297 293.247L439.762 293.247ZM437.351 297.921C437.12 298.529 436.915 299.147 436.736 299.773L481.324 299.773C481.144 299.147 480.939 298.529 480.708 297.921L437.351 297.921ZM436.1 302.591C436.005 303.205 435.935 303.823 435.89 304.443L482.137 304.443C482.092 303.823 482.022 303.206 481.927 302.591L436.1 302.591ZM435.858 307.265C435.887 307.887 435.942 308.508 436.022 309.126L482.01 309.126C482.089 308.508 482.144 307.887 482.173 307.265L435.858 307.265ZM436.566 311.938C436.728 312.566 436.917 313.187 437.131 313.8L480.899 313.8C481.115 313.188 481.305 312.567 481.468 311.938L436.566 311.938ZM438.329 316.612C438.651 317.248 439.002 317.869 439.38 318.472L478.65 318.472C479.029 317.869 479.379 317.248 479.701 316.612L438.329 316.612ZM441.46 321.287C442.023 321.94 442.622 322.56 443.253 323.147L474.774 323.147C475.407 322.561 476.006 321.94 476.57 321.287L441.46 321.287ZM446.986 325.961C448.197 326.696 449.474 327.319 450.799 327.821L467.235 327.821C468.56 327.319 469.835 326.696 471.046 325.961L446.986 325.961Z" fill="#FF5555"/>
</svg>
